<?xml version="1.0" encoding="utf-8"?>
<!-- Generator: Adobe Illustrator 19.2.1, SVG Export Plug-In . SVG Version: 6.00 Build 0)  -->
<svg version="1.1" id="Layer_1" xmlns="http://www.w3.org/2000/svg" xmlns:xlink="http://www.w3.org/1999/xlink" x="0px" y="0px"
	 viewBox="0 0 1473.9 341.1" style="enable-background:new 0 0 1473.9 341.1;" xml:space="preserve">
<style type="text/css">
	.st0{fill:#2A3152;}
	.st1{fill:#E88124;}
	.st2{fill:#FFFFFF;}
</style>
<title>Binarycom_official_logo_</title>
<g>
	<path class="st0" d="M639.1,77.1c-4.1-0.1-8.1,0.5-12,1.7c-3.4,1-6.7,2.6-9.7,4.5c-2.8,1.8-5.4,4-7.7,6.5c-0.6,0.6-1.2,1.2-1.7,1.9
		V79.3h-29.5v112.1H608v-62.8c0-7.7,2-13.8,6-18s9.1-6.3,15.6-6.3s11.5,2,15,6s5.4,10,5.4,17.8v63.2h29.5v-70.6
		c0-13.1-3.6-23.8-10.6-31.6S652,77.1,639.1,77.1z"/>
	<path class="st0" d="M747.9,77.9c-7.8-0.1-15.6,0.7-23.2,2.5c-6.4,1.7-12.6,3.9-18.7,6.6l-2,0.9l8.2,24.1l2.3-1
		c4.6-1.9,9.3-3.5,14.1-4.8c5.1-1.2,10.4-1.8,15.7-1.8c7.9,0,14,1.8,18.1,5.3c3.8,3.3,5.8,7.9,6,14.1c-3.4-1-6.9-1.8-10.4-2.4
		c-5.6-0.9-11.3-1.3-17-1.2c-6.1,0-12.1,0.7-18,2.2c-5.3,1.3-10.3,3.7-14.6,6.9c-4.1,3.1-7.5,7.2-9.7,11.8
		c-2.4,5.2-3.6,10.9-3.4,16.6v0.4c-0.1,5.3,1.1,10.6,3.4,15.4c2.1,4.3,5.2,8.1,9,11.1c3.8,3,8.2,5.3,12.9,6.7
		c5,1.5,10.2,2.3,15.4,2.2c8.5,0,15.8-1.6,21.8-4.7c3.8-2,7.4-4.4,10.6-7.3v9.8h29.1v-66c0-15-4.1-26.8-12.3-35.1
		S764.5,77.9,747.9,77.9z M742.8,170.6c-4.8,0.2-9.4-1.1-13.5-3.7c-3.3-2.3-4.9-5.5-4.9-9.8v-0.4c-0.1-4.1,2-8,5.5-10.3
		c3.9-2.7,9.6-4,16.8-4c4.4,0,8.8,0.4,13.1,1.2c3.1,0.6,6.2,1.4,9.2,2.4v4.5c0,2.8-0.6,5.6-1.8,8.2c-1.3,2.5-3.1,4.6-5.3,6.3
		c-2.5,1.9-5.4,3.3-8.4,4.2C750,170.2,746.4,170.7,742.8,170.6L742.8,170.6z"/>
	<path class="st0" d="M949.5,154.6l-28.8-75.2h-31.4L935,189c-1.8,3.9-3.6,6.5-5.4,7.9c-2.1,1.5-4.7,2.3-7.3,2.2
		c-2.3,0-4.5-0.3-6.7-1c-2.3-0.7-4.5-1.7-6.6-2.8l-2.2-1.2l-10.3,22.6l1.9,1c3.9,2.1,7.9,3.8,12.2,5c4.7,1.3,9.5,1.9,14.4,1.8
		c4.2,0.1,8.3-0.5,12.3-1.7c3.7-1.2,7.2-3.1,10.2-5.6c3.3-2.8,6-6.1,8.2-9.8c2.7-4.6,5-9.4,6.9-14.4l43.9-113.6h-30.7L949.5,154.6z"
		/>
	<path class="st1" d="M1142.1,152.3c-3.6,3.6-7.6,6.7-12,9.3c-8.1,4.3-17.8,4.6-26.2,0.9c-3.6-1.6-6.8-4-9.4-6.9
		c-2.7-3-4.8-6.4-6.2-10.2c-1.5-4-2.2-8.3-2.2-12.6v-0.4c0-4.2,0.7-8.4,2.2-12.4c1.4-3.7,3.4-7.2,6-10.1c2.5-2.8,5.6-5.1,9-6.8
		c3.5-1.7,7.4-2.5,11.4-2.5c5.8,0,10.7,1.2,14.6,3.4c4.3,2.6,8.2,5.7,11.6,9.3l1.7,1.8l18.4-19.9l-1.4-1.6
		c-5.2-5.7-11.4-10.5-18.3-13.9c-7-3.5-15.9-5.3-26.4-5.3c-23.7-0.3-45.1,14-53.9,35.9c-2.9,7.2-4.4,14.8-4.4,22.5v0.4
		c0,7.7,1.5,15.3,4.4,22.5c2.8,6.9,6.9,13.2,12.2,18.5c5.3,5.3,11.5,9.5,18.4,12.4c7.3,3.1,15.2,4.6,23.1,4.6c10.8,0,19.9-2,27-5.9
		c7.1-3.9,13.4-9,18.7-15l1.5-1.7l-18.2-17.9L1142.1,152.3z"/>
	<path class="st1" d="M1273.2,91.4c-5.4-5.4-11.8-9.6-18.9-12.5c-7.5-3.1-15.6-4.6-23.8-4.6c-8.2-0.1-16.2,1.5-23.8,4.7
		c-14.1,5.9-25.4,17.1-31.3,31.1c-3.1,7.2-4.6,14.9-4.6,22.7v0.4c0,7.7,1.5,15.3,4.4,22.5c2.9,6.9,7.1,13.2,12.4,18.5
		c5.4,5.3,11.8,9.5,18.8,12.4c15.2,6.1,32.2,6,47.4-0.1c14.2-5.8,25.5-17,31.4-31.1c3.1-7.1,4.6-14.8,4.6-22.5v-0.4
		C1290.2,117,1284.1,102.3,1273.2,91.4z M1230.5,165c-4.1,0-8.2-0.8-12-2.5c-3.6-1.7-6.9-4.1-9.6-7c-2.7-3-4.8-6.5-6.3-10.2
		c-1.5-4-2.3-8.2-2.3-12.5v-0.4c0-4.2,0.7-8.4,2.1-12.4c1.3-3.7,3.3-7.1,6-10c2.7-2.9,5.9-5.2,9.5-6.8c7.8-3.4,16.7-3.4,24.5,0
		c3.6,1.6,6.9,4,9.6,6.9c2.7,3,4.9,6.4,6.3,10.2c1.5,4,2.3,8.3,2.3,12.6v0.4c0,4.2-0.7,8.4-2.1,12.3c-1.3,3.7-3.4,7.1-6,10.1
		c-2.7,2.9-5.9,5.2-9.4,6.9C1239.1,164.2,1234.8,165.1,1230.5,165L1230.5,165z"/>
	<path class="st1" d="M1463.3,85.7c-7.1-7.6-17-11.4-29.5-11.4c-8.5,0-16,1.9-22.3,5.6c-5.2,3.1-9.9,7.1-13.9,11.7
		c-2.8-4.7-6.7-8.7-11.3-11.7c-5.7-3.7-12.7-5.6-20.8-5.6c-4,0-7.9,0.5-11.7,1.7c-3.4,1-6.6,2.5-9.5,4.5c-2.7,1.8-5.2,3.9-7.4,6.3
		c-0.6,0.6-1.1,1.2-1.6,1.8v-12h-29.5v112.1h29.5V126c0-7.7,1.9-13.8,5.7-18.1s8.6-6.3,14.8-6.3s10.9,1.9,14.2,5.9s5.1,10,5.1,17.8
		v63.4h29.5v-62.8c0-8,1.9-14.1,5.7-18.2s8.7-6.1,14.8-6.1s10.9,1.9,14.2,5.9s5.1,10.1,5.1,18v63.2h29.5v-70.9
		C1473.9,104,1470.4,93.3,1463.3,85.7z"/>
	<rect x="533.2" y="79.3" class="st0" width="29.5" height="112.1"/>
	<path class="st0" d="M564.4,53.1c0-9-7.3-16.3-16.3-16.3c-9,0-16.3,7.3-16.3,16.3c0,9,7.3,16.3,16.3,16.3
		C557,69.4,564.4,62.1,564.4,53.1z"/>
	<path class="st1" d="M1042.5,174.8c0-9-7.3-16.4-16.3-16.4c-9,0-16.4,7.3-16.4,16.3c0,9,7.3,16.4,16.3,16.4c0,0,0,0,0,0
		C1035.2,191.1,1042.5,183.8,1042.5,174.8z"/>
	<path class="st0" d="M508.8,123c-2.9-3.1-6.2-5.7-9.8-7.8c-2.5-1.4-5-2.6-7.6-3.8l-1.7-0.7l1.5-1c1.3-0.8,2.5-1.7,3.8-2.7
		c2.8-2.1,5.2-4.6,7.2-7.4c2.1-3,3.8-6.2,5-9.7c1.3-4.1,2-8.4,1.9-12.7v-0.4c0.2-9.8-3.6-19.3-10.7-26.2
		c-9.2-9.2-22.8-13.9-40.6-13.9h-69.5v154.7h71.6c7.8,0.1,15.7-0.9,23.3-2.8c6.5-1.6,12.7-4.3,18.2-8.1c5-3.5,9.1-8.2,11.9-13.6
		c2.9-5.8,4.3-12.2,4.2-18.7v-0.4c0.1-4.8-0.7-9.6-2.3-14.1C513.8,129.7,511.6,126.1,508.8,123z M417.9,99.7V63.5h36.7
		c8.2,0,14.5,1.6,18.8,4.8s6.2,7.3,6.2,12.9v0.4c0,6.4-2.3,11.1-7,14.2s-11.6,4.8-19.9,4.8h-34.7V99.7L417.9,99.7z M488,145.5
		c0,6.4-2.3,11.1-7.1,14.3s-11.8,4.9-20.5,4.9h-42.5v-38.5h40.5c10.1,0,17.7,1.7,22.5,5s7,7.7,7,13.8L488,145.5L488,145.5z"/>
	<path class="st0" d="M878.5,77.3c-10-0.4-18.5,2-25.1,7.2c-4.2,3.3-7.8,7.2-10.6,11.8V79.3h-29.5v112.1h29.5v-43.2
		c-0.1-6.1,0.7-12.1,2.5-17.9c1.4-4.6,3.8-8.8,7-12.5c3-3.2,6.7-5.7,10.8-7.3c4.5-1.7,9.2-2.5,14-2.5h3.6V77.4L878.5,77.3z"/>
	<path class="st0" d="M388.4,288.5l7.7-0.7l-0.1,2c0,2.2,0.5,4.3,1.5,6.2c1.2,2,3,3.5,5.2,4.4c2.7,1.1,5.6,1.6,8.6,1.5
		c4.7,0,8.3-1,10.8-3.1c2.3-1.7,3.6-4.3,3.7-7.1c0-1.9-0.7-3.6-2-5c-1.3-1.5-5-3.5-11-6.1c-3.3-1.3-6.4-2.8-9.5-4.6
		c-2.3-1.4-4.3-3.4-5.9-5.7c-1.3-2.1-1.9-4.5-1.9-7c0-2.9,0.8-5.7,2.5-8.1c1.8-2.6,4.4-4.5,7.3-5.6c3.4-1.3,7.1-2,10.8-1.9
		c4.2-0.1,8.3,0.7,12.1,2.4c5.5,2.5,9.2,8,9.4,14.1c0,0.2,0,0.6-0.1,1.2l-7.6,0.6c0-1.3-0.1-2.6-0.5-3.9c-0.5-1.6-1.4-3-2.5-4.2
		c-1.3-1.2-2.9-2.1-4.6-2.7c-2.1-0.7-4.4-1-6.6-1c-4.3,0-7.6,1-10,2.9c-2.9,2.4-3.6,6.5-1.6,9.7c1.1,1.4,2.5,2.6,4.1,3.4
		c1.4,0.8,4.7,2.3,9.9,4.6c3,1.2,5.9,2.7,8.7,4.4c2,1.3,3.7,3.1,4.9,5.1c1.2,2.1,1.8,4.5,1.7,6.9c0,3.2-1,6.3-2.9,8.8
		c-2,2.8-4.8,4.9-8,6.2c-3.7,1.5-7.7,2.3-11.8,2.2c-6.6,0-12.1-1.5-16.3-4.4S388.4,296,388.4,288.5z"/>
	<path class="st0" d="M441.7,307.5l12.3-58.7h7.2l-4.7,22.6c2.2-2.3,4.7-4.2,7.5-5.7c2.2-1.1,4.7-1.7,7.2-1.7c3.5,0,6.2,0.9,8.2,2.8
		c2,1.9,3.1,4.6,2.9,7.4c-0.2,2.8-0.6,5.5-1.3,8.2l-5.2,25.1h-7.3l5.4-25.8c0.6-2.3,0.9-4.6,1.2-7c0-1.3-0.5-2.5-1.4-3.4
		c-1.2-1-2.6-1.4-4.1-1.3c-5.4,0-10.4,3-13.1,7.7c-1.4,2.4-2.6,6.3-3.7,11.6l-3.8,18.3L441.7,307.5L441.7,307.5z"/>
	<path class="st0" d="M517.7,302.2c-2.2,1.9-4.6,3.5-7.3,4.7c-2.4,1-4.9,1.5-7.5,1.5c-3.5,0.2-6.9-1.1-9.5-3.5
		c-2.4-2.3-3.7-5.5-3.6-8.9c0-2.2,0.5-4.4,1.6-6.3c1.1-1.8,2.5-3.3,4.3-4.4c2-1.2,4.2-2,6.5-2.4c3.1-0.4,6.2-0.7,9.3-0.8
		c4.5-0.2,7.8-0.6,9.8-1.4c0.5-1.6,0.8-3.3,0.8-4.9c0.1-1.6-0.6-3-1.8-4c-1.7-1.3-4.1-2-7.4-2c-2.6-0.1-5.2,0.6-7.5,2
		c-2,1.4-3.5,3.4-4.2,5.8L494,277c1.2-3.9,3.7-7.3,7.1-9.7c3.2-2.2,7.3-3.4,12.3-3.4c5.3,0,9.4,1.2,12.5,3.8
		c2.3,1.7,3.6,4.4,3.5,7.3c-0.1,2.7-0.4,5.3-1,7.9l-2.4,10.6c-0.7,2.7-1,5.4-1.1,8.2c0.1,2,0.4,3.9,0.9,5.8h-7.3
		C518,305.7,517.8,304,517.7,302.2z M520.4,286c-1.1,0.4-2.1,0.7-3.3,0.9c-1.2,0.2-3.1,0.4-5.8,0.7c-3,0.2-6.1,0.6-9,1.4
		c-1.6,0.5-2.9,1.4-3.9,2.7c-0.9,1.2-1.3,2.7-1.3,4.2c-0.1,1.9,0.7,3.7,2.1,5c1.7,1.4,3.8,2.1,6,2c5.1,0,9.7-2.8,12.2-7.2
		C518.9,292.6,519.9,289.3,520.4,286L520.4,286z"/>
	<path class="st0" d="M536.2,307.5l9-42.6h6.4l-1.8,8.7c1.7-2.8,3.9-5.3,6.4-7.3c1.8-1.5,4.1-2.3,6.4-2.3c1.9,0.1,3.7,0.6,5.3,1.5
		l-3,6.8c-1.2-0.9-2.6-1.4-4.1-1.4c-2.5,0-5.2,1.4-7.8,4.3s-4.8,7.9-6.3,15.3l-3.6,17.1H536.2z"/>
	<path class="st0" d="M561.7,323.8l12.3-58.9h6.7l-1.2,6c1.9-2.1,4.2-4,6.7-5.4c1.9-1,4.1-1.5,6.2-1.5c3.9-0.1,7.5,1.5,10.1,4.4
		c2.7,3,4,7.2,4,12.7c0,4.1-0.7,8.3-2.2,12.1c-1.2,3.2-3.1,6.2-5.4,8.8c-1.9,2-4.1,3.7-6.5,4.9c-2.1,1-4.4,1.5-6.7,1.5
		c-5.1,0-9.1-2.6-11.9-7.8l-4.8,23.1L561.7,323.8L561.7,323.8z M576,290.1c-0.1,2.2,0.1,4.5,0.7,6.6c0.7,1.7,1.8,3.2,3.3,4.2
		c1.5,1.1,3.4,1.6,5.2,1.6c4.2,0,7.6-2.3,10.1-7c2.5-4.4,3.8-9.3,3.8-14.4c0-3.6-0.9-6.4-2.6-8.4c-1.6-1.9-4-3-6.5-2.9
		c-1.8,0-3.6,0.5-5.2,1.5c-1.7,1.1-3.2,2.6-4.4,4.4c-1.5,2.2-2.6,4.6-3.4,7.1C576.5,285.2,576.1,287.6,576,290.1L576,290.1z"/>
	<path class="st0" d="M637.7,307.5l12.3-58.7h24.5c4.3,0,7.4,0.5,9.6,1.5c2.2,1.1,4.1,2.8,5.2,5c1.4,2.4,2.1,5.2,2.1,8
		c-0.1,5-1.9,9.8-5.2,13.6c-1.3,1.5-2.9,2.7-4.6,3.7c-1.6,0.8-3.3,1.5-5,1.8c-3.7,0.9-7.6,1.3-11.4,1.3h-14.7l-5,23.9L637.7,307.5
		L637.7,307.5z M652,277h12.9c5,0,8.7-0.5,11.1-1.6c4.7-2.2,7.7-6.8,7.8-12c0.1-1.6-0.3-3.3-1.2-4.7c-0.7-1.2-1.8-2.1-3.2-2.7
		c-1.4-0.6-4-0.9-7.9-0.9h-15.1L652,277z"/>
	<path class="st0" d="M693.3,307.5l8.9-42.6h6.4l-1.8,8.7c1.7-2.8,3.9-5.3,6.5-7.3c1.8-1.5,4.1-2.3,6.4-2.3c1.9,0.1,3.7,0.6,5.3,1.5
		l-3,6.8c-1.2-0.9-2.6-1.4-4.1-1.4c-2.5,0-5.1,1.4-7.8,4.3c-2.7,2.8-4.8,7.9-6.3,15.3l-3.6,17.1H693.3z"/>
	<path class="st0" d="M722,307.5l8.9-42.6h7.2l-8.8,42.6L722,307.5L722,307.5z M732.6,257l1.7-8.2h7.2l-1.7,8.2H732.6z"/>
	<path class="st0" d="M771.5,292l7.3,0.8c-1.8,5.3-4.4,9.3-7.7,11.8c-3.3,2.5-7.3,3.9-11.5,3.9c-4.2,0.2-8.3-1.5-11.2-4.5
		c-2.9-3-4.3-7.2-4.3-12.5c0-4.7,0.9-9.4,2.7-13.7c1.6-4.1,4.4-7.7,8-10.2c3.5-2.3,7.6-3.6,11.8-3.5c4.5,0,8.2,1.3,10.8,3.9
		s4,6,4,10.2l-7.1,0.5c0.1-2.3-0.8-4.6-2.4-6.3c-1.6-1.6-3.8-2.4-6-2.3c-2.8-0.1-5.5,0.9-7.6,2.8c-2.1,1.8-3.8,4.6-5,8.4
		c-1.2,3.5-1.8,7.1-1.9,10.8c0,3.7,0.8,6.4,2.4,8.2c1.5,1.8,3.7,2.8,5.9,2.7c2.5-0.1,4.9-1,6.7-2.7C768.9,298,770.6,295.1,771.5,292
		z"/>
	<path class="st0" d="M816.1,293.1l7.1,0.7c-1,3.5-3.4,6.8-7,10c-3.6,3.1-8.2,4.8-13,4.7c-3,0-6-0.7-8.7-2.2c-2.6-1.4-4.7-3.7-6-6.4
		c-1.4-3-2.2-6.2-2.1-9.5c0-4.7,1.1-9.3,3.2-13.6c1.8-4,4.7-7.3,8.3-9.7c3.3-2.1,7.2-3.2,11.1-3.2c5.1,0,9.1,1.6,12.1,4.7
		s4.6,7.5,4.6,12.9c0,2.2-0.2,4.3-0.6,6.4h-31.4c-0.1,0.7-0.2,1.5-0.2,2.2c0,4,0.9,7,2.7,9.1c1.6,2,4.1,3.2,6.7,3.1
		c2.6,0,5.2-0.9,7.3-2.4C813,298.3,814.9,295.9,816.1,293.1z M795,282.5h23.9c0-0.8,0-1.3,0-1.6c0-3.7-0.9-6.5-2.7-8.4
		c-1.8-1.9-4.4-3-7-2.9c-3.1,0-6.1,1.1-8.5,3.2C798.2,275,796.3,278.2,795,282.5L795,282.5z"/>
	<path class="st0" d="M832.8,292.9l7.2-0.4c0,1.8,0.3,3.6,1,5.3c0.7,1.6,2,2.8,3.5,3.6c1.9,0.9,3.9,1.4,6,1.4c3.2,0,5.6-0.6,7.2-1.9
		c2.5-1.6,3.2-5,1.5-7.5c-0.2-0.2-0.3-0.4-0.5-0.6c-1-1.1-3.4-2.5-7.2-4.1c-2.5-1-5-2.2-7.4-3.5c-1.6-1-3-2.3-4-3.9
		c-0.9-1.5-1.4-3.3-1.3-5.1c0-3.3,1.5-6.5,4-8.6c2.7-2.4,6.4-3.6,11.2-3.6c5.3,0,9.4,1.2,12.2,3.7c2.8,2.5,4.4,6,4.3,9.8l-7.1,0.5
		c0-2.3-1-4.6-2.7-6.1c-1.7-1.5-4.2-2.3-7.3-2.3c-2.1-0.1-4.2,0.5-5.8,1.7c-1.2,0.8-2,2.2-2.1,3.7c0,1.4,0.7,2.7,1.8,3.5
		c0.8,0.7,2.9,1.8,6.2,3.2c5.6,2.4,9,4.3,10.5,5.7c2.2,2.1,3.5,5,3.5,8.1c0,2.2-0.7,4.4-2,6.2c-1.4,2.2-3.5,3.9-5.9,4.9
		c-3,1.3-6.2,1.9-9.4,1.8c-4.5,0.1-8.9-1.1-12.5-3.6C834.2,302.4,832.6,298.4,832.8,292.9z"/>
	<path class="st0" d="M876.8,307.5l1.8-8.2h8.2l-1.8,8.2H876.8L876.8,307.5z"/>
	<path class="st0" d="M926.7,288.5l7.7-0.7l-0.1,2c0,2.2,0.5,4.3,1.6,6.2c1.2,2,3,3.5,5.2,4.4c2.7,1.1,5.7,1.6,8.6,1.5
		c4.7,0,8.3-1,10.7-3.1s3.7-4.4,3.7-7.1c0-1.8-0.7-3.6-1.9-5c-1.3-1.5-5-3.5-10.9-6.1c-3.3-1.3-6.4-2.8-9.5-4.6
		c-2.3-1.4-4.4-3.4-5.9-5.7c-1.3-2.1-1.9-4.5-1.9-7c0-2.9,0.8-5.7,2.5-8.1c1.8-2.6,4.3-4.5,7.3-5.6c3.4-1.3,7.1-2,10.8-1.9
		c4.2-0.1,8.3,0.7,12.1,2.4c3,1.3,5.5,3.6,7.2,6.4c1.4,2.3,2.2,5,2.2,7.7c0,0.2,0,0.6,0,1.2l-7.6,0.6c0-1.3-0.1-2.6-0.4-3.9
		c-0.5-1.6-1.3-3-2.5-4.2c-1.3-1.2-2.9-2.1-4.6-2.7c-2.1-0.7-4.4-1-6.6-1c-4.2,0-7.6,1-10,2.9c-1.8,1.4-2.8,3.6-2.7,5.8
		c0,1.4,0.4,2.7,1.1,3.9c1.1,1.4,2.4,2.6,4,3.4c1.4,0.8,4.7,2.3,9.9,4.6c3,1.2,5.9,2.7,8.7,4.4c2,1.3,3.7,3.1,4.9,5.1
		c1.2,2.1,1.8,4.5,1.7,6.9c0,3.2-1,6.2-2.9,8.8c-2,2.8-4.8,4.9-8,6.2c-3.7,1.5-7.7,2.3-11.8,2.2c-6.6,0-12.1-1.5-16.3-4.4
		S926.7,296,926.7,288.5z"/>
	<path class="st0" d="M980,307.5l8.9-42.6h7.3l-1.5,7c2.1-2.5,4.5-4.6,7.3-6.2c2.1-1.1,4.5-1.7,6.9-1.7c2.4-0.1,4.7,0.6,6.6,2.1
		c1.8,1.5,3.1,3.6,3.5,5.9c1.9-2.4,4.2-4.5,6.8-6c2.3-1.3,4.9-2,7.6-2c3.6,0,6.2,0.8,8,2.5c1.9,1.9,2.8,4.5,2.7,7.1
		c-0.1,2.2-0.4,4.4-0.9,6.5l-5.8,27.4h-7.2l5.8-28.1c0.4-1.6,0.7-3.3,0.8-4.9c0.1-1.2-0.4-2.4-1.3-3.3c-1.1-0.8-2.4-1.3-3.7-1.2
		c-2.3,0.1-4.6,0.7-6.6,2c-2.2,1.2-4,3-5.2,5.1c-1.6,3.1-2.7,6.4-3.3,9.8l-4.4,20.7h-7.3l6-28.8c0.3-1.4,0.5-2.8,0.6-4.1
		c0.1-1.3-0.4-2.5-1.3-3.4c-0.9-0.9-2.1-1.3-3.4-1.3c-2.3,0.1-4.5,0.8-6.5,2c-2.3,1.3-4.2,3.2-5.5,5.5c-1.7,3.1-2.9,6.5-3.5,10
		l-4.2,20.1L980,307.5L980,307.5z"/>
	<path class="st0" d="M1078.8,302.2c-2.2,1.9-4.6,3.5-7.3,4.7c-2.4,1-4.9,1.5-7.5,1.5c-3.5,0.2-6.9-1.1-9.5-3.5
		c-2.4-2.3-3.7-5.5-3.6-8.9c0-2.2,0.5-4.4,1.6-6.3c1.1-1.8,2.5-3.3,4.3-4.4c2-1.2,4.2-2,6.6-2.4c3.1-0.4,6.2-0.7,9.3-0.8
		c4.6-0.2,7.8-0.6,9.8-1.4c0.5-1.6,0.8-3.3,0.8-4.9c0.1-1.6-0.6-3-1.8-4c-1.7-1.3-4.2-2-7.4-2c-2.6-0.1-5.2,0.6-7.5,2
		c-2,1.4-3.5,3.4-4.2,5.8l-7.3-0.7c1.3-3.9,3.8-7.3,7.1-9.7c3.2-2.2,7.3-3.4,12.3-3.4c5.3,0,9.4,1.2,12.5,3.8
		c2.3,1.7,3.6,4.4,3.5,7.3c0,2.7-0.4,5.3-1,7.9l-2.3,10.6c-0.7,2.7-1.1,5.4-1.1,8.2c0.1,2,0.4,3.9,0.9,5.8h-7.3
		C1079.1,305.8,1078.9,304,1078.8,302.2z M1081.4,286c-1.1,0.4-2.2,0.7-3.3,0.9c-1.1,0.2-3.1,0.5-5.8,0.7c-3,0.2-6.1,0.6-9,1.4
		c-1.6,0.5-2.9,1.4-3.9,2.7c-0.9,1.2-1.3,2.7-1.3,4.2c-0.1,1.9,0.7,3.7,2.1,5c1.7,1.4,3.8,2.1,6,2c2.5,0,4.9-0.7,7-2
		c2.2-1.3,4-3.1,5.2-5.3C1080,292.6,1081,289.3,1081.4,286L1081.4,286z"/>
	<path class="st0" d="M1097.4,307.5l8.8-42.6h6.4l-1.8,8.7c1.7-2.8,3.9-5.2,6.4-7.3c1.8-1.5,4.1-2.3,6.5-2.3
		c1.9,0.1,3.7,0.6,5.3,1.5l-3,6.8c-1.2-0.9-2.6-1.4-4.1-1.4c-2.6,0-5.2,1.4-7.8,4.3s-4.7,7.9-6.2,15.3l-3.6,17.1H1097.4
		L1097.4,307.5z"/>
	<path class="st0" d="M1143.3,301.6l-1.2,5.9c-1.7,0.4-3.4,0.7-5.1,0.7c-2.5,0.1-4.9-0.6-6.9-2.1c-1.3-1.1-2-2.7-1.9-4.4
		c0.2-2.2,0.5-4.3,1-6.5l5.2-24.7h-5.7l1.2-5.6h5.7l2.2-10.4l8.3-5l-3.2,15.4h7.2l-1.2,5.6h-7.1l-5,23.5c-0.4,1.8-0.7,3.6-0.9,5.4
		c-0.1,0.7,0.2,1.5,0.7,2c0.7,0.5,1.6,0.8,2.4,0.7C1140.4,302.1,1141.8,302,1143.3,301.6z"/>
	<path class="st0" d="M1191.1,307.5l10.9-52.1h-19.3l1.4-6.7h46.2l-1.4,6.7h-19.1l-10.8,52.1H1191.1z"/>
	<path class="st0" d="M1220.9,307.5l8.9-42.6h6.4l-1.8,8.7c1.7-2.8,3.9-5.2,6.4-7.3c1.8-1.5,4.1-2.3,6.5-2.3
		c1.9,0.1,3.7,0.6,5.3,1.5l-3,6.8c-1.2-0.9-2.7-1.4-4.2-1.4c-2.5,0-5.1,1.4-7.8,4.3c-2.7,2.8-4.8,7.9-6.3,15.3l-3.6,17.1
		L1220.9,307.5L1220.9,307.5z"/>
	<path class="st0" d="M1278.5,302.2c-2.2,1.9-4.6,3.5-7.2,4.7c-2.3,1-4.9,1.5-7.4,1.5c-3.5,0.2-6.9-1.1-9.5-3.5
		c-2.4-2.3-3.7-5.5-3.6-8.9c0-2.2,0.5-4.4,1.6-6.3c1.1-1.8,2.5-3.3,4.3-4.4c2-1.2,4.3-2,6.6-2.4c3.1-0.4,6.2-0.7,9.2-0.8
		c4.6-0.2,7.8-0.6,9.8-1.4c0.5-1.6,0.8-3.3,0.8-4.9c0.1-1.6-0.6-3-1.8-4c-1.7-1.3-4.2-2-7.4-2c-2.6-0.1-5.3,0.6-7.5,2
		c-2,1.4-3.5,3.4-4.2,5.8l-7.3-0.7c1.3-3.9,3.8-7.3,7.1-9.7c3.2-2.2,7.3-3.4,12.3-3.4c5.2,0,9.4,1.2,12.5,3.8
		c2.3,1.7,3.6,4.4,3.5,7.3c0,2.7-0.4,5.3-1,7.9l-2.4,10.6c-0.6,2.7-1,5.4-1.1,8.2c0.1,2,0.4,3.9,0.9,5.8h-7.3
		C1278.9,305.7,1278.6,304,1278.5,302.2z M1281.2,286c-1.1,0.4-2.1,0.7-3.3,0.9c-1.2,0.2-3.1,0.4-5.8,0.7c-3,0.2-6,0.6-8.9,1.4
		c-1.6,0.5-3,1.4-4,2.7c-0.9,1.2-1.3,2.7-1.3,4.2c0,1.9,0.7,3.7,2.1,5c1.7,1.4,3.8,2.1,6,2c2.4,0,4.8-0.7,6.9-1.9
		c2.2-1.3,4-3.1,5.3-5.3C1279.7,292.6,1280.7,289.3,1281.2,286L1281.2,286z"/>
	<path class="st0" d="M1325.8,301.3c-4.2,4.8-8.5,7.1-13,7.1c-3.9,0.1-7.6-1.5-10.1-4.5c-2.7-3-4-7.3-4-13c-0.1-4.9,1-9.8,3.2-14.2
		c1.8-3.9,4.5-7.2,8-9.6c2.8-2,6.1-3.1,9.6-3.2c5.3,0,9.3,2.5,12,7.6l4.8-22.9h7.2l-12.3,58.8h-6.7L1325.8,301.3z M1306,289.7
		c-0.1,2.4,0.2,4.7,0.9,7c0.6,1.7,1.6,3.2,3,4.3c1.5,1.1,3.3,1.7,5.1,1.7c3.3,0,6.2-1.7,8.9-5.1c3.6-4.5,5.4-10.1,5.4-16.8
		c0-3.4-0.9-6-2.7-7.9c-1.7-1.9-4.1-2.9-6.7-2.8c-1.7,0-3.3,0.4-4.8,1.1c-1.7,1-3.1,2.4-4.2,4c-1.6,2.1-2.7,4.5-3.5,7.1
		C1306.5,284.6,1306,287.1,1306,289.7z"/>
	<path class="st0" d="M1344.1,307.5l8.9-42.6h7.2l-8.9,42.6H1344.1L1344.1,307.5z M1354.7,257l1.7-8.2h7.2l-1.7,8.2H1354.7z"/>
	<path class="st0" d="M1364.3,307.5l8.9-42.6h6.6l-1.6,7.4c2.3-2.5,5-4.7,8-6.4c2.3-1.3,5-2,7.6-2c3-0.2,5.9,0.8,8.1,2.8
		c2,2,3.1,4.7,2.9,7.5c-0.1,2.5-0.4,5-1,7.4l-5.4,25.8h-7.2l5.6-27c0.5-1.9,0.8-3.9,0.9-5.8c0-1.3-0.5-2.6-1.5-3.4
		c-1.2-1-2.7-1.4-4.2-1.3c-3.7,0-7.3,1.4-9.9,4c-2.9,2.7-5,7.2-6.4,13.7l-4.1,19.8L1364.3,307.5L1364.3,307.5z"/>
	<path class="st0" d="M1411.2,311.3l7.3,0.7c-0.1,1.3,0.1,2.6,0.6,3.7c0.5,0.9,1.2,1.5,2.1,1.9c1.6,0.6,3.4,0.9,5.1,0.9
		c4.4,0,7.5-1.1,9.5-3.4c1.2-1.5,2.4-4.9,3.5-10l0.7-3.4c-3.8,3.8-7.8,5.7-12,5.7c-4.1,0.1-8.1-1.7-10.8-4.8
		c-2.9-3.2-4.3-7.7-4.3-13.5c0-4.6,1.1-9.2,3.4-13.2c1.9-3.6,4.7-6.7,8.1-9.1c2.9-1.9,6.3-3,9.7-3c5.6,0,9.9,2.6,12.9,7.9l1.4-7h6.7
		l-8.6,41.1c-0.6,3.7-1.9,7.3-3.7,10.6c-1.5,2.5-3.7,4.6-6.3,5.9c-2.9,1.4-6.2,2.1-9.4,2.1c-3,0.1-6-0.4-8.8-1.3
		c-2.2-0.7-4.1-2-5.5-3.9c-1.2-1.7-1.9-3.7-1.8-5.8C1411,312.8,1411.1,312.1,1411.2,311.3z M1420.3,288.7c-0.1,2.2,0.2,4.5,0.8,6.6
		c0.6,1.9,1.8,3.5,3.4,4.7c1.4,1.1,3.2,1.7,5,1.6c2.6-0.1,5.1-0.9,7.1-2.5c2.6-2,4.6-4.7,5.7-7.8c1.4-3.2,2.1-6.6,2.2-10
		c0.2-3.1-0.9-6.1-2.9-8.4c-1.8-2-4.4-3.2-7.2-3.1c-1.8,0-3.6,0.5-5.2,1.4c-1.8,1.1-3.4,2.6-4.6,4.3c-1.5,2.1-2.6,4.4-3.2,6.9
		C1420.8,284.5,1420.4,286.6,1420.3,288.7L1420.3,288.7z"/>
	<path class="st0" d="M1460.9,307.5l1.7-8.2h8.2l-1.8,8.2H1460.9L1460.9,307.5z"/>
	<path class="st2" d="M291.1,49.9c-66.5-66.6-174.7-66.6-241.2,0s-66.5,174.8,0,241.3s174.8,66.5,241.2,0S357.7,116.4,291.1,49.9z"
		/>
	<path class="st0" d="M123,218c0,0,2,14.6,14.3,21.4l-3.3-6.1C134,233.3,140.2,216.9,123,218z"/>
	<path class="st0" d="M282.5,61.3c-61.8-61.8-162.2-61.8-223.9,0s-61.8,162.3,0,224s162.2,61.8,223.9,0S344.3,123,282.5,61.3z
		 M266.1,268.9c-1.7,1.7-3.4,3.3-5.2,4.9c-38,31-67.4,15.6-67.7,15.6c-19.9-4-29.7-4-35.3-7.8c-1.4-0.9-5.9-3.4-6.9-2.8
		c-4.1,2.4-9.6,3.6-15.4-0.9c-0.5-0.4-1-0.9-1.4-1.3c-6.3-6.3-4.2-12.8-2.1-15.1c1.4-1.5-1.1-5.6-1.1-5.6s-7.5-11.1-12.5-17.7
		c-5.6-7.3-6.4-21.8-6.4-22L112,216c-5.7-6.7-6.3-8.8-8.2-12.1c-1.3-1.9-2.7-3.7-4.4-5.3c-0.9-0.9-1.8-1.9-2.6-2.9
		c-0.2-0.3-0.2-0.6-0.1-0.9c0.5-3.1,7.3-10.1,8.7-11c1.8-1.2,9.5-5.8,9.5-5.8s4.3-6.8,11.7-6.8c6.6,0,10.7-0.4,22.2,3.4l4.8,1.5
		c8,2.6,15,5.6,20.7,8c3.7,1.7,7.6,3.2,11.5,4.5c9.9,2.6,27.3-5.4,31-8.8c6-5.5,8.6-9.2,8.7-12.2c0-1.7-0.7-3.2-2.4-5
		c-0.9-0.8-2-2.4-3.5-3.8c-0.2-0.3-0.5-0.5-0.8-0.7c-16.7-17.8-13.8-29-13.8-29.1c0.7-8-3.9-13.1-8.8-18.5l-0.8-1
		c-0.2-0.2-0.4-0.4-0.6-0.6c7.1,1.2,12,4,25.9,5.6c7.9,0.9,5.4,0.8,11.7,0.6c8.7-0.3,15.6-1,16.1-3c-0.9-0.7-4.7,0.2-23.2-6.9
		c-8.6-3.3-9.9-3.8-15.4-5.6c-7-2.4-14.6-5.7-14.6-5.7c30.2,7.9,40,11,53.8,11.2c3.5,0.1,7-0.2,10.4-0.9c2-0.4,8-1.7,8.7-3.8
		c0.2-0.4-5.8,1-17-2.7c-35.2-11.6-38.2-17.5-57.7-25c-6.8-2.6-9-4.1-29.6-9.4c-9.4-2.4-23.7-1-25.6,0.2
		c-26.7-6.3-32.8-5.6-40.6-3.9C149.9,26,220.4,32.1,266.1,77.8c6.1,6.1,11.6,12.8,16.5,20l0.6,1
		C318.7,152.3,311.5,223.5,266.1,268.9z M177.4,116.3c13.2,4.7,17.5,18.8,17.5,18.8c-16.9,3.9-13.3-13.4-13.3-13.4L177.4,116.3z"/>
</g>
</svg>
