<svg id="Layer_1" data-name="Layer 1" xmlns="http://www.w3.org/2000/svg" viewBox="0 0 261.33 60.47"><defs><style>.cls-1{fill:#fff;}.cls-2{fill:#2a3052;}.cls-3{fill:#e78024;}</style></defs><title>binary_logo_new</title><path class="cls-1" d="M51.61,8.85a30.24,30.24,0,1,0,0,42.77A30.26,30.26,0,0,0,51.61,8.85Z"/><path class="cls-2" d="M21.8,38.17A5.51,5.51,0,0,0,24.33,42l-.58-1.08S24.86,38,21.8,38.17Z"/><path class="cls-2" d="M50.08,10.38a28.08,28.08,0,1,0,0,39.72A28.1,28.1,0,0,0,50.08,10.38Zm-2.9,36.81c-.31.3-.61.59-.92.87-6.75,5.5-11.94,2.76-12,2.76-3.52-.7-5.27-.71-6.26-1.37-.25-.17-1-.59-1.23-.49a2.25,2.25,0,0,1-2.72-.16l-.25-.23a1.93,1.93,0,0,1-.37-2.67c.26-.26-.2-1-.2-1s-1.32-2-2.22-3.15a8.79,8.79,0,0,1-1.14-3.91v0a10.46,10.46,0,0,1-1.46-2.14,5.55,5.55,0,0,0-.78-.94,5,5,0,0,1-.47-.51.21.21,0,0,1,0-.16,5.65,5.65,0,0,1,1.55-2c.32-.21,1.68-1,1.68-1a2.71,2.71,0,0,1,2.08-1.21,9.93,9.93,0,0,1,3.93.6l.84.27c1.42.45,2.67,1,3.66,1.42a16.55,16.55,0,0,0,2,.79c1.75.46,4.85-1,5.5-1.56,1.07-1,1.53-1.63,1.54-2.16a1.2,1.2,0,0,0-.43-.88c-.16-.14-.36-.42-.62-.67a1.12,1.12,0,0,0-.14-.12c-3-3.15-2.46-5.13-2.45-5.16.13-1.42-.69-2.33-1.56-3.27l-.14-.18a1,1,0,0,1-.1-.11,37.8,37.8,0,0,0,4.59,1,8.79,8.79,0,0,0,2.08.11c1.54,0,2.77-.18,2.85-.54a21.27,21.27,0,0,1-4.11-1.21c-1.52-.58-1.76-.67-2.72-1-1.24-.42-2.58-1-2.58-1,5.35,1.4,7.1,2,9.54,2A7.68,7.68,0,0,0,46,18c.35-.06,1.43-.31,1.55-.68a8.74,8.74,0,0,1-3-.48c-6.24-2.06-6.77-3.09-10.23-4.44a31.17,31.17,0,0,0-5.25-1.67,10.13,10.13,0,0,0-4.54,0c-4.73-1.11-5.81-1-7.2-.69a24,24,0,0,1,29.86,3.23,24.46,24.46,0,0,1,2.92,3.54l.11.17a24,24,0,0,1-3,30.19ZM31.46,20.13a5.51,5.51,0,0,1,3.1,3.34c-3,.68-2.36-2.37-2.36-2.37Z"/><path class="cls-1" d="M113.32,12.81a7.15,7.15,0,0,0-2.12.29,7.06,7.06,0,0,0-1.72.79A7.18,7.18,0,0,0,108.11,15l-.3.33V13.2h-5.23V33.08h5.23V21.94a4.46,4.46,0,0,1,1.06-3.18,3.61,3.61,0,0,1,2.77-1.11,3.31,3.31,0,0,1,2.67,1.06,4.69,4.69,0,0,1,1,3.16V33.07h5.24V20.54a8.16,8.16,0,0,0-1.87-5.61A6.74,6.74,0,0,0,113.32,12.81Z"/><path class="cls-1" d="M132.61,13a16.55,16.55,0,0,0-4.11.44,20.87,20.87,0,0,0-3.31,1.18l-.35.16L126.29,19l.42-.17a19.25,19.25,0,0,1,2.5-.85,11.25,11.25,0,0,1,2.78-.31,4.78,4.78,0,0,1,3.2.95,3.25,3.25,0,0,1,1.06,2.51,18.61,18.61,0,0,0-1.84-.43,17.45,17.45,0,0,0-3-.22,12.37,12.37,0,0,0-3.18.39,7.41,7.41,0,0,0-2.6,1.23,5.81,5.81,0,0,0-1.73,2.09,6.63,6.63,0,0,0-.62,2.94v.07a6,6,0,0,0,.6,2.73,5.84,5.84,0,0,0,1.59,2,6.83,6.83,0,0,0,2.28,1.19,9.26,9.26,0,0,0,2.72.4,8.29,8.29,0,0,0,3.87-.84,9.17,9.17,0,0,0,1.88-1.29v1.73h5.16V21.41a8.56,8.56,0,0,0-2.18-6.22C137.77,13.7,135.55,13,132.61,13Zm-.9,16.44a4.18,4.18,0,0,1-2.39-.65,2,2,0,0,1-.87-1.74v-.07a2.08,2.08,0,0,1,1-1.82,5.25,5.25,0,0,1,3-.72,12.61,12.61,0,0,1,2.32.2,12,12,0,0,1,1.63.42v.79a3.18,3.18,0,0,1-.33,1.45,3.42,3.42,0,0,1-.95,1.12,5,5,0,0,1-1.48.75A6.35,6.35,0,0,1,131.7,29.39Z"/><path class="cls-1" d="M168.34,26.54,163.24,13.2h-5.56l8.11,19.45a3.7,3.7,0,0,1-1,1.4,2.06,2.06,0,0,1-1.3.39,4.06,4.06,0,0,1-1.19-.18,7,7,0,0,1-1.17-.49l-.39-.21-1.82,4,.34.18a10.82,10.82,0,0,0,2.15.88A9.42,9.42,0,0,0,164,39a7.27,7.27,0,0,0,2.18-.31,5.48,5.48,0,0,0,1.8-1,7,7,0,0,0,1.46-1.74,16.78,16.78,0,0,0,1.22-2.55l7.79-20.15H173Z"/><path class="cls-3" d="M202.49,26.63a10,10,0,0,1-2.13,1.65,5.38,5.38,0,0,1-4.65.17A5.3,5.3,0,0,1,194,27.22,5.48,5.48,0,0,1,193,25.41a6.47,6.47,0,0,1-.38-2.23V23.1a6.31,6.31,0,0,1,.38-2.2,5.61,5.61,0,0,1,1.06-1.8,5.14,5.14,0,0,1,1.6-1.2,4.62,4.62,0,0,1,2-.44,5.06,5.06,0,0,1,2.58.61,9.86,9.86,0,0,1,2.06,1.64l.31.32,3.26-3.52-.26-.28a11.06,11.06,0,0,0-3.24-2.47,10.67,10.67,0,0,0-12.07,2.12,10.27,10.27,0,0,0-2.16,3.31,10.56,10.56,0,0,0-.78,4v.07a10.47,10.47,0,0,0,.78,4,10.09,10.09,0,0,0,2.16,3.27,10.29,10.29,0,0,0,7.36,3,9.92,9.92,0,0,0,4.78-1,12.46,12.46,0,0,0,3.32-2.67l.27-.29-3.22-3.16Z"/><path class="cls-3" d="M225.74,15.83a10.2,10.2,0,0,0-3.35-2.22,10.84,10.84,0,0,0-4.22-.81,10.7,10.7,0,0,0-4.22.83,10.37,10.37,0,0,0-5.56,5.52,10.12,10.12,0,0,0-.81,4v.07a10.32,10.32,0,0,0,.79,4,10,10,0,0,0,2.21,3.27,10.49,10.49,0,0,0,3.34,2.2,11.24,11.24,0,0,0,8.41,0,10.28,10.28,0,0,0,5.57-5.52,10,10,0,0,0,.81-4V23.1a10.12,10.12,0,0,0-3-7.27Zm-7.56,13.05a5.06,5.06,0,0,1-2.14-.45,5.39,5.39,0,0,1-1.7-1.24,6,6,0,0,1-1.12-1.82,6.08,6.08,0,0,1-.4-2.21V23.1a6.63,6.63,0,0,1,.37-2.2,5.14,5.14,0,0,1,1.06-1.78,5.26,5.26,0,0,1,1.68-1.2,5.5,5.5,0,0,1,4.35,0,5.31,5.31,0,0,1,1.7,1.22,5.57,5.57,0,0,1,1.11,1.81,6.23,6.23,0,0,1,.4,2.23v.07a6.44,6.44,0,0,1-.37,2.18,5.49,5.49,0,0,1-1.06,1.79,5.32,5.32,0,0,1-1.67,1.22A5.26,5.26,0,0,1,218.17,28.89Z"/><path class="cls-3" d="M259.44,14.83a6.83,6.83,0,0,0-5.22-2,7.68,7.68,0,0,0-3.95,1,9.81,9.81,0,0,0-2.46,2.07,6.43,6.43,0,0,0-2-2.06,6.6,6.6,0,0,0-3.69-1,7,7,0,0,0-2.08.29,6.26,6.26,0,0,0-1.69.8A7.54,7.54,0,0,0,237,15l-.28.32V13.2h-5.23V33.08h5.23V22a4.7,4.7,0,0,1,1-3.21,3.32,3.32,0,0,1,2.63-1.12,3.09,3.09,0,0,1,2.51,1,4.75,4.75,0,0,1,.91,3.15V33.07H249V21.94a4.56,4.56,0,0,1,1-3.22,3.39,3.39,0,0,1,2.62-1.07,3.09,3.09,0,0,1,2.51,1,4.86,4.86,0,0,1,.91,3.19V33.07h5.23V20.51A8,8,0,0,0,259.44,14.83Z"/><rect class="cls-1" x="94.54" y="13.2" width="5.24" height="19.87"/><path class="cls-1" d="M100.06,8.55a2.9,2.9,0,1,0-2.9,2.9A2.9,2.9,0,0,0,100.06,8.55Z"/><path class="cls-3" d="M184.84,30.61a2.9,2.9,0,1,0-2.89,2.9A2.9,2.9,0,0,0,184.84,30.61Z"/><path class="cls-1" d="M90.2,20.94a7.49,7.49,0,0,0-1.74-1.38,13.76,13.76,0,0,0-1.35-.66l-.29-.12.27-.17c.23-.14.45-.31.67-.48A6.26,6.26,0,0,0,89,16.82a6.51,6.51,0,0,0,.88-1.72,6.92,6.92,0,0,0,.34-2.26v-.08a6.33,6.33,0,0,0-1.89-4.65c-1.62-1.63-4-2.46-7.2-2.46H68.86V33.07H81.55a16.26,16.26,0,0,0,4.13-.49,9.88,9.88,0,0,0,3.23-1.44,6.73,6.73,0,0,0,2.1-2.4,7.27,7.27,0,0,0,.74-3.32v-.08a7.15,7.15,0,0,0-.4-2.51A5.58,5.58,0,0,0,90.2,20.94ZM74.09,16.81V10.4h6.5a5.52,5.52,0,0,1,3.33.84A2.67,2.67,0,0,1,85,13.53v.07a2.76,2.76,0,0,1-1.25,2.51,6.33,6.33,0,0,1-3.52.86H74.09Zm12.42,8.12a2.82,2.82,0,0,1-1.26,2.53,6.52,6.52,0,0,1-3.63.87H74.09V21.52h7.19a7.14,7.14,0,0,1,4,.9,2.77,2.77,0,0,1,1.25,2.44Z"/><path class="cls-1" d="M155.76,12.84a6.53,6.53,0,0,0-4.46,1.28,8.18,8.18,0,0,0-1.88,2.08v-3h-5.24V33.08h5.24V25.41a10.11,10.11,0,0,1,.45-3.17A6.05,6.05,0,0,1,151.11,20a5.16,5.16,0,0,1,1.91-1.3,6.72,6.72,0,0,1,2.48-.44h.64V12.86Z"/><path class="cls-1" d="M68.86,48.21l1-.09v.26a1.56,1.56,0,0,0,.19.79,1.28,1.28,0,0,0,.65.55,2.71,2.71,0,0,0,1.08.2,2.07,2.07,0,0,0,1.36-.39,1.13,1.13,0,0,0,.47-.89,1,1,0,0,0-.25-.63,4.63,4.63,0,0,0-1.38-.77,9.34,9.34,0,0,1-1.19-.58,2.38,2.38,0,0,1-.74-.71,1.66,1.66,0,0,1-.24-.88,1.77,1.77,0,0,1,.31-1,2,2,0,0,1,.92-.7,3.63,3.63,0,0,1,1.36-.25,3.44,3.44,0,0,1,1.52.31,2,2,0,0,1,1.18,1.77s0,.08,0,.15l-1,.07a1.71,1.71,0,0,0-.06-.49,1.37,1.37,0,0,0-.31-.52,1.54,1.54,0,0,0-.58-.34,2.54,2.54,0,0,0-.83-.13,1.94,1.94,0,0,0-1.26.37.95.95,0,0,0-.2,1.22,1.45,1.45,0,0,0,.51.42c.18.1.59.29,1.25.58a8.09,8.09,0,0,1,1.1.56,1.91,1.91,0,0,1,.62.65,1.71,1.71,0,0,1,.22.87,1.86,1.86,0,0,1-.37,1.11,2.36,2.36,0,0,1-1,.78,3.71,3.71,0,0,1-1.49.28,3.55,3.55,0,0,1-2.05-.55A2.24,2.24,0,0,1,68.86,48.21Z"/><path class="cls-1" d="M75.58,50.6l1.55-7.41H78L77.45,46a3.72,3.72,0,0,1,.95-.71,2,2,0,0,1,.91-.21,1.44,1.44,0,0,1,1,.35,1.22,1.22,0,0,1,.37.93,5.91,5.91,0,0,1-.16,1l-.66,3.17H79l.68-3.25a6.06,6.06,0,0,0,.15-.89.55.55,0,0,0-.18-.43.74.74,0,0,0-.52-.17,1.91,1.91,0,0,0-1.65,1A5.45,5.45,0,0,0,77,48.3l-.48,2.3Z"/><path class="cls-1" d="M85.16,49.94a3.79,3.79,0,0,1-.92.6,2.33,2.33,0,0,1-.94.19,1.65,1.65,0,0,1-1.2-.44,1.48,1.48,0,0,1-.46-1.12,1.53,1.53,0,0,1,.21-.8,1.6,1.6,0,0,1,.54-.55,2.34,2.34,0,0,1,.83-.3,9.58,9.58,0,0,1,1.17-.1,4.13,4.13,0,0,0,1.24-.18,2.57,2.57,0,0,0,.1-.62.6.6,0,0,0-.23-.5,1.47,1.47,0,0,0-.93-.25,1.6,1.6,0,0,0-.94.26,1.42,1.42,0,0,0-.53.73l-.92-.08a2.37,2.37,0,0,1,.9-1.22,2.66,2.66,0,0,1,1.55-.42,2.42,2.42,0,0,1,1.58.47,1.12,1.12,0,0,1,.45.92,4.76,4.76,0,0,1-.13,1l-.3,1.33a4.86,4.86,0,0,0-.14,1,3.36,3.36,0,0,0,.11.73h-.93A3,3,0,0,1,85.16,49.94Zm.34-2.05a2.37,2.37,0,0,1-.41.11q-.22,0-.74.09a5.76,5.76,0,0,0-1.13.18,1,1,0,0,0-.49.35.91.91,0,0,0-.17.52.81.81,0,0,0,.27.63,1.07,1.07,0,0,0,.75.25,1.78,1.78,0,0,0,1.54-.91A4,4,0,0,0,85.5,47.88Z"/><path class="cls-1" d="M87.5,50.6l1.12-5.37h.81l-.23,1.1a3.81,3.81,0,0,1,.81-.92,1.35,1.35,0,0,1,.81-.29,1.57,1.57,0,0,1,.67.2l-.38.85a.86.86,0,0,0-.52-.17,1.41,1.41,0,0,0-1,.54,4.08,4.08,0,0,0-.79,1.93l-.45,2.15Z"/><path class="cls-1" d="M90.71,52.66l1.55-7.42h.84l-.16.75a3.48,3.48,0,0,1,.84-.68,1.74,1.74,0,0,1,.79-.19,1.65,1.65,0,0,1,1.27.56,2.32,2.32,0,0,1,.5,1.6,4.1,4.1,0,0,1-.28,1.53,3.48,3.48,0,0,1-.68,1.11,3,3,0,0,1-.82.62,2,2,0,0,1-.85.2,1.64,1.64,0,0,1-1.5-1l-.6,2.92Zm1.81-4.25a2.87,2.87,0,0,0,.08.83,1.15,1.15,0,0,0,.42.53,1.12,1.12,0,0,0,.66.2A1.45,1.45,0,0,0,95,49.09a3.73,3.73,0,0,0,.48-1.81,1.57,1.57,0,0,0-.32-1.06,1,1,0,0,0-.81-.37,1.21,1.21,0,0,0-.65.18,2,2,0,0,0-.55.55,3.3,3.3,0,0,0-.42.9A3.17,3.17,0,0,0,92.52,48.41Z"/><path class="cls-1" d="M100.3,50.6l1.55-7.41h3.09a3.08,3.08,0,0,1,1.21.18,1.5,1.5,0,0,1,.66.63,2,2,0,0,1,.26,1,2.5,2.5,0,0,1-.19.94,2.53,2.53,0,0,1-.47.78,2.28,2.28,0,0,1-.58.46,2.44,2.44,0,0,1-.62.23,6.32,6.32,0,0,1-1.44.16h-1.86l-.63,3Zm1.79-3.85h1.63a3.52,3.52,0,0,0,1.4-.21,1.7,1.7,0,0,0,1-1.51,1.11,1.11,0,0,0-.15-.59.84.84,0,0,0-.4-.34,3,3,0,0,0-1-.11h-1.9Z"/><path class="cls-1" d="M107.31,50.6l1.12-5.37h.81l-.23,1.1a3.85,3.85,0,0,1,.82-.92,1.34,1.34,0,0,1,.81-.29,1.6,1.6,0,0,1,.67.2l-.38.85a.87.87,0,0,0-.52-.17,1.4,1.4,0,0,0-1,.54,4.06,4.06,0,0,0-.79,1.93l-.46,2.15Z"/><path class="cls-1" d="M110.93,50.6l1.13-5.37H113l-1.11,5.37Zm1.33-6.37.22-1h.91l-.22,1Z"/><path class="cls-1" d="M117.17,48.65l.91.1a3.11,3.11,0,0,1-1,1.49,2.31,2.31,0,0,1-1.44.49,1.88,1.88,0,0,1-1.42-.57,2.18,2.18,0,0,1-.54-1.58,4.57,4.57,0,0,1,.35-1.73,2.79,2.79,0,0,1,1-1.29,2.57,2.57,0,0,1,1.48-.44,1.88,1.88,0,0,1,1.37.49,1.69,1.69,0,0,1,.51,1.29l-.9.06a1.1,1.1,0,0,0-.3-.8,1,1,0,0,0-.76-.29,1.4,1.4,0,0,0-1,.35,2.27,2.27,0,0,0-.64,1.06,4.34,4.34,0,0,0-.23,1.37,1.51,1.51,0,0,0,.31,1,1,1,0,0,0,.75.34,1.3,1.3,0,0,0,.85-.34A2.19,2.19,0,0,0,117.17,48.65Z"/><path class="cls-1" d="M122.79,48.78l.89.09a2.73,2.73,0,0,1-.88,1.26,2.43,2.43,0,0,1-1.64.6,2.23,2.23,0,0,1-1.1-.28,1.79,1.79,0,0,1-.75-.8,2.63,2.63,0,0,1-.26-1.2,3.84,3.84,0,0,1,.41-1.71,2.91,2.91,0,0,1,1.05-1.23,2.59,2.59,0,0,1,1.4-.4,2,2,0,0,1,1.53.6,2.24,2.24,0,0,1,.58,1.63,5.12,5.12,0,0,1-.07.81h-4a1.9,1.9,0,0,0,0,.28,1.7,1.7,0,0,0,.35,1.15,1.08,1.08,0,0,0,.84.4,1.64,1.64,0,0,0,.93-.31A2,2,0,0,0,122.79,48.78Zm-2.66-1.33h3c0-.09,0-.16,0-.2a1.49,1.49,0,0,0-.34-1.06,1.16,1.16,0,0,0-.89-.37,1.64,1.64,0,0,0-1.07.4A2.43,2.43,0,0,0,120.13,47.45Z"/><path class="cls-1" d="M124.9,48.77l.91-.05a1.68,1.68,0,0,0,.12.67,1,1,0,0,0,.45.46,1.61,1.61,0,0,0,.76.17,1.46,1.46,0,0,0,.91-.24.68.68,0,0,0,.12-1,3,3,0,0,0-.91-.52,9,9,0,0,1-.93-.44,1.5,1.5,0,0,1-.51-.49,1.21,1.21,0,0,1-.17-.64,1.42,1.42,0,0,1,.5-1.09,2.06,2.06,0,0,1,1.42-.45,2.25,2.25,0,0,1,1.54.47,1.61,1.61,0,0,1,.55,1.23l-.9.06a1,1,0,0,0-.34-.77,1.35,1.35,0,0,0-.92-.28,1.1,1.1,0,0,0-.74.22.6.6,0,0,0-.26.47.56.56,0,0,0,.23.44,3.76,3.76,0,0,0,.78.41,5.27,5.27,0,0,1,1.32.72,1.37,1.37,0,0,1,.43,1,1.43,1.43,0,0,1-.25.78,1.65,1.65,0,0,1-.75.61,2.79,2.79,0,0,1-1.18.23,2.66,2.66,0,0,1-1.58-.46A1.63,1.63,0,0,1,124.9,48.77Z"/><path class="cls-1" d="M130.44,50.6l.22-1h1l-.23,1Z"/><path class="cls-1" d="M136.74,48.21l1-.09v.26a1.62,1.62,0,0,0,.2.79,1.29,1.29,0,0,0,.65.55,2.73,2.73,0,0,0,1.09.2,2.06,2.06,0,0,0,1.35-.39,1.13,1.13,0,0,0,.47-.89,1,1,0,0,0-.24-.63,4.66,4.66,0,0,0-1.38-.77,9.23,9.23,0,0,1-1.19-.58,2.4,2.4,0,0,1-.74-.71,1.67,1.67,0,0,1-.23-.88,1.8,1.8,0,0,1,.31-1,2,2,0,0,1,.92-.7,3.67,3.67,0,0,1,1.36-.25,3.44,3.44,0,0,1,1.52.31A2,2,0,0,1,143,45.14s0,.08,0,.15l-1,.07a1.61,1.61,0,0,0-.06-.49,1.29,1.29,0,0,0-.31-.52,1.53,1.53,0,0,0-.58-.34,2.55,2.55,0,0,0-.83-.13,2,2,0,0,0-1.26.37.9.9,0,0,0-.34.74.87.87,0,0,0,.14.49,1.43,1.43,0,0,0,.51.42c.17.1.59.29,1.25.58a7.83,7.83,0,0,1,1.1.56,1.88,1.88,0,0,1,.62.65,1.7,1.7,0,0,1,.22.87,1.89,1.89,0,0,1-.36,1.11,2.35,2.35,0,0,1-1,.78,3.66,3.66,0,0,1-1.48.28,3.55,3.55,0,0,1-2.05-.55A2.24,2.24,0,0,1,136.74,48.21Z"/><path class="cls-1" d="M143.46,50.6l1.12-5.37h.92l-.19.89a3.8,3.8,0,0,1,.91-.79,1.85,1.85,0,0,1,.87-.21,1.29,1.29,0,0,1,.84.26,1.27,1.27,0,0,1,.44.74,3,3,0,0,1,.86-.75,1.93,1.93,0,0,1,1-.25,1.42,1.42,0,0,1,1,.32,1.17,1.17,0,0,1,.34.9,4.78,4.78,0,0,1-.11.82l-.73,3.46h-.91l.74-3.55a3.32,3.32,0,0,0,.1-.62.54.54,0,0,0-.17-.41.68.68,0,0,0-.47-.15,1.63,1.63,0,0,0-.83.25,1.73,1.73,0,0,0-.66.65,4.23,4.23,0,0,0-.41,1.23l-.55,2.6h-.92l.76-3.63a3,3,0,0,0,.08-.52.57.57,0,0,0-.16-.42.58.58,0,0,0-.43-.16,1.59,1.59,0,0,0-.81.25,1.94,1.94,0,0,0-.69.69,4,4,0,0,0-.44,1.26l-.53,2.54Z"/><path class="cls-1" d="M155.91,49.94a3.79,3.79,0,0,1-.91.6,2.33,2.33,0,0,1-.94.19,1.64,1.64,0,0,1-1.19-.44,1.48,1.48,0,0,1-.45-1.12,1.54,1.54,0,0,1,.2-.8,1.6,1.6,0,0,1,.55-.55,2.36,2.36,0,0,1,.83-.3,9.55,9.55,0,0,1,1.17-.1,4.09,4.09,0,0,0,1.24-.18,2.29,2.29,0,0,0,.11-.62.61.61,0,0,0-.23-.5,1.47,1.47,0,0,0-.93-.25,1.6,1.6,0,0,0-.94.26,1.42,1.42,0,0,0-.53.73l-.92-.08a2.38,2.38,0,0,1,.9-1.22,2.65,2.65,0,0,1,1.55-.42,2.42,2.42,0,0,1,1.58.47,1.11,1.11,0,0,1,.44.92,4.66,4.66,0,0,1-.13,1l-.3,1.33a4.88,4.88,0,0,0-.14,1,3.48,3.48,0,0,0,.11.73H156A3.11,3.11,0,0,1,155.91,49.94Zm.34-2.05a2.19,2.19,0,0,1-.41.11c-.14,0-.39.06-.73.09a5.63,5.63,0,0,0-1.13.18,1,1,0,0,0-.5.35.88.88,0,0,0-.17.52.82.82,0,0,0,.27.63,1.06,1.06,0,0,0,.76.25,1.74,1.74,0,0,0,.87-.24,1.71,1.71,0,0,0,.66-.67A3.84,3.84,0,0,0,156.25,47.88Z"/><path class="cls-1" d="M158.26,50.6l1.12-5.37h.81l-.23,1.1a3.88,3.88,0,0,1,.81-.92,1.35,1.35,0,0,1,.81-.29,1.6,1.6,0,0,1,.67.2l-.37.85a.86.86,0,0,0-.52-.17,1.42,1.42,0,0,0-1,.54,4.09,4.09,0,0,0-.79,1.93l-.46,2.15Z"/><path class="cls-1" d="M164,49.86l-.15.75a2.6,2.6,0,0,1-.64.08,1.31,1.31,0,0,1-.87-.27.67.67,0,0,1-.24-.55,5.6,5.6,0,0,1,.13-.81l.65-3.12h-.72l.15-.71h.72l.28-1.32,1-.63L164,45.23h.9l-.15.71h-.89l-.63,3a5.11,5.11,0,0,0-.11.68.33.33,0,0,0,.09.25.45.45,0,0,0,.31.08A2.17,2.17,0,0,0,164,49.86Z"/><path class="cls-1" d="M170.08,50.6,171.45,44H169l.17-.84H175l-.18.84h-2.41l-1.37,6.56Z"/><path class="cls-1" d="M173.83,50.6,175,45.23h.81l-.23,1.1a3.88,3.88,0,0,1,.81-.92,1.35,1.35,0,0,1,.81-.29,1.58,1.58,0,0,1,.67.2l-.37.85a.88.88,0,0,0-.52-.17,1.4,1.4,0,0,0-1,.54,4.06,4.06,0,0,0-.79,1.93l-.46,2.15Z"/><path class="cls-1" d="M181.1,49.94a3.71,3.71,0,0,1-.91.6,2.33,2.33,0,0,1-.94.19,1.64,1.64,0,0,1-1.2-.44,1.47,1.47,0,0,1-.46-1.12,1.54,1.54,0,0,1,.2-.8,1.61,1.61,0,0,1,.54-.55,2.39,2.39,0,0,1,.83-.3,9.6,9.6,0,0,1,1.17-.1,4.07,4.07,0,0,0,1.24-.18,2.29,2.29,0,0,0,.11-.62.6.6,0,0,0-.23-.5,1.47,1.47,0,0,0-.93-.25,1.61,1.61,0,0,0-.94.26,1.45,1.45,0,0,0-.53.73l-.93-.08a2.41,2.41,0,0,1,.9-1.22,2.66,2.66,0,0,1,1.55-.42,2.42,2.42,0,0,1,1.58.47,1.11,1.11,0,0,1,.44.92,4.57,4.57,0,0,1-.13,1l-.3,1.33a5.32,5.32,0,0,0-.14,1,3.58,3.58,0,0,0,.11.73h-.92A3.57,3.57,0,0,1,181.1,49.94Zm.34-2.05A2.2,2.2,0,0,1,181,48q-.22,0-.73.09a5.51,5.51,0,0,0-1.13.18,1,1,0,0,0-.5.35.91.91,0,0,0-.16.52.83.83,0,0,0,.26.63,1.07,1.07,0,0,0,.75.25,1.73,1.73,0,0,0,.88-.24,1.76,1.76,0,0,0,.67-.67A4.14,4.14,0,0,0,181.44,47.88Z"/><path class="cls-1" d="M187.07,49.82a2.21,2.21,0,0,1-1.64.9,1.63,1.63,0,0,1-1.27-.56,2.34,2.34,0,0,1-.51-1.63,4,4,0,0,1,.4-1.79,3.07,3.07,0,0,1,1-1.21,2.12,2.12,0,0,1,1.21-.4,1.62,1.62,0,0,1,1.51,1l.61-2.88h.91l-1.55,7.41h-.84Zm-2.5-1.47a2.74,2.74,0,0,0,.11.88,1.18,1.18,0,0,0,.38.54,1,1,0,0,0,.64.21,1.42,1.42,0,0,0,1.12-.64,3.33,3.33,0,0,0,.68-2.12,1.38,1.38,0,0,0-.34-1,1.1,1.1,0,0,0-.84-.36,1.26,1.26,0,0,0-.6.14,1.75,1.75,0,0,0-.53.5,3.53,3.53,0,0,0-.62,1.84Z"/><path class="cls-1" d="M189.37,50.6l1.12-5.37h.91l-1.12,5.37Zm1.33-6.37.22-1h.91l-.21,1Z"/><path class="cls-1" d="M191.92,50.6,193,45.23h.83l-.2.94a4.41,4.41,0,0,1,1-.8,2,2,0,0,1,1-.25,1.43,1.43,0,0,1,1,.35,1.24,1.24,0,0,1,.37.94,5.38,5.38,0,0,1-.13.94l-.68,3.25h-.91l.71-3.4a4,4,0,0,0,.11-.73.55.55,0,0,0-.19-.43.74.74,0,0,0-.53-.17,1.79,1.79,0,0,0-1.25.5,3.23,3.23,0,0,0-.81,1.73l-.52,2.5h-.91Z"/><path class="cls-1" d="M197.83,51.08l.93.09a.9.9,0,0,0,.07.47.57.57,0,0,0,.27.24,1.55,1.55,0,0,0,.64.11,1.49,1.49,0,0,0,1.2-.43,3.36,3.36,0,0,0,.44-1.25l.09-.43a2.11,2.11,0,0,1-1.52.72,1.77,1.77,0,0,1-1.36-.6,2.41,2.41,0,0,1-.55-1.69,3.29,3.29,0,0,1,.43-1.66,3.22,3.22,0,0,1,1-1.14,2.24,2.24,0,0,1,1.23-.38,1.78,1.78,0,0,1,1.63,1l.18-.88h.84l-1.08,5.18a4.26,4.26,0,0,1-.47,1.33,1.93,1.93,0,0,1-.8.74,2.57,2.57,0,0,1-1.19.26,3.28,3.28,0,0,1-1.12-.17,1.39,1.39,0,0,1-.69-.49,1.24,1.24,0,0,1-.23-.73A2.22,2.22,0,0,1,197.83,51.08ZM199,48.23a2.33,2.33,0,0,0,.11.83,1.26,1.26,0,0,0,.43.59,1,1,0,0,0,.63.21,1.55,1.55,0,0,0,.89-.32,2.21,2.21,0,0,0,.72-1A3.37,3.37,0,0,0,202,47.3a1.46,1.46,0,0,0-.37-1.05,1.17,1.17,0,0,0-.9-.39,1.29,1.29,0,0,0-.65.18,2,2,0,0,0-.58.55,2.65,2.65,0,0,0-.41.87A3.19,3.19,0,0,0,199,48.23Z"/><path class="cls-1" d="M204.09,50.6l.22-1h1l-.22,1Z"/><path class="cls-1" d="M210.29,48.2l1-.09v.26a1.6,1.6,0,0,0,.2.79,1.29,1.29,0,0,0,.65.55,2.74,2.74,0,0,0,1.08.19,2.07,2.07,0,0,0,1.36-.39,1.14,1.14,0,0,0,.47-.89,1,1,0,0,0-.25-.64,4.67,4.67,0,0,0-1.38-.77,9.93,9.93,0,0,1-1.19-.58,2.36,2.36,0,0,1-.74-.71,1.65,1.65,0,0,1-.24-.88,1.79,1.79,0,0,1,.31-1,2,2,0,0,1,.92-.7,3.62,3.62,0,0,1,1.36-.24,3.46,3.46,0,0,1,1.53.3,2,2,0,0,1,1.18,1.77s0,.08,0,.15l-1,.08a1.7,1.7,0,0,0-.06-.49,1.29,1.29,0,0,0-.31-.52,1.51,1.51,0,0,0-.58-.34,2.52,2.52,0,0,0-.83-.13,2,2,0,0,0-1.26.36.9.9,0,0,0-.34.74.87.87,0,0,0,.14.49,1.45,1.45,0,0,0,.51.42q.26.15,1.25.58a8.31,8.31,0,0,1,1.1.56,1.91,1.91,0,0,1,.62.65,1.72,1.72,0,0,1,.22.87,1.85,1.85,0,0,1-.37,1.11,2.37,2.37,0,0,1-1,.79,3.72,3.72,0,0,1-1.48.28,3.54,3.54,0,0,1-2.05-.55A2.24,2.24,0,0,1,210.29,48.2Z"/><path class="cls-1" d="M216.77,50.6l1.12-5.36h.91l-1.12,5.36Zm1.33-6.37.22-1h.91l-.22,1Z"/><path class="cls-1" d="M219.1,50.6l1.12-5.36h.83l-.2.93a4.39,4.39,0,0,1,1-.8,2,2,0,0,1,1-.25,1.42,1.42,0,0,1,1,.35,1.24,1.24,0,0,1,.37.94,5.27,5.27,0,0,1-.13.94l-.68,3.25h-.91l.71-3.4a3.9,3.9,0,0,0,.11-.73.56.56,0,0,0-.18-.43.77.77,0,0,0-.53-.17,1.79,1.79,0,0,0-1.25.51,3.22,3.22,0,0,0-.81,1.73L220,50.6Z"/><path class="cls-1" d="M228.55,48.64l.91.1a3.07,3.07,0,0,1-1,1.49,2.3,2.3,0,0,1-1.44.49,1.87,1.87,0,0,1-1.42-.57,2.19,2.19,0,0,1-.54-1.58,4.51,4.51,0,0,1,.35-1.73,2.79,2.79,0,0,1,1-1.29,2.57,2.57,0,0,1,1.48-.44,1.89,1.89,0,0,1,1.37.49,1.71,1.71,0,0,1,.51,1.29l-.9.06a1.09,1.09,0,0,0-.3-.8,1,1,0,0,0-.77-.29,1.41,1.41,0,0,0-1,.35,2.29,2.29,0,0,0-.63,1.06,4.43,4.43,0,0,0-.23,1.37,1.52,1.52,0,0,0,.3,1,1,1,0,0,0,.75.34,1.31,1.31,0,0,0,.85-.34A2.22,2.22,0,0,0,228.55,48.64Z"/><path class="cls-1" d="M234,48.77l.89.09a2.69,2.69,0,0,1-.88,1.26,2.43,2.43,0,0,1-1.64.6,2.22,2.22,0,0,1-1.09-.28,1.81,1.81,0,0,1-.76-.8,2.66,2.66,0,0,1-.26-1.2,3.82,3.82,0,0,1,.41-1.7,2.9,2.9,0,0,1,1.05-1.23,2.6,2.6,0,0,1,1.4-.4,2,2,0,0,1,1.53.6,2.25,2.25,0,0,1,.57,1.63,4.8,4.8,0,0,1-.07.81h-3.95a2.23,2.23,0,0,0,0,.28,1.7,1.7,0,0,0,.35,1.15,1.08,1.08,0,0,0,.85.4,1.63,1.63,0,0,0,.92-.31A2,2,0,0,0,234,48.77Zm-2.66-1.33h3q0-.14,0-.2a1.48,1.48,0,0,0-.34-1.05,1.16,1.16,0,0,0-.88-.37,1.62,1.62,0,0,0-1.07.4A2.42,2.42,0,0,0,231.31,47.44Z"/><path class="cls-1" d="M240.8,50.6,242,45a5.82,5.82,0,0,1-2.13,1l.17-.83a7.47,7.47,0,0,0,1.35-.71,6.86,6.86,0,0,0,1-.77,2.82,2.82,0,0,0,.38-.49h.53l-1.55,7.43Z"/><path class="cls-1" d="M244.76,48.9l.86-.09a1.51,1.51,0,0,0,.35.88.88.88,0,0,0,.64.26,1.35,1.35,0,0,0,1-.45,4.06,4.06,0,0,0,1-1.91,3.89,3.89,0,0,1-.82.49,1.9,1.9,0,0,1-.73.15,1.82,1.82,0,0,1-1.21-.45,2.09,2.09,0,0,1-.71-1.7,3.07,3.07,0,0,1,.82-2.15,2.24,2.24,0,0,1,1.72-.77,2,2,0,0,1,1.53.68,2.79,2.79,0,0,1,.61,1.92,7.3,7.3,0,0,1-.4,2.38,4.38,4.38,0,0,1-1.3,2,2.33,2.33,0,0,1-1.5.54,1.72,1.72,0,0,1-1.26-.48A2,2,0,0,1,244.76,48.9ZM246,46a1.6,1.6,0,0,0,.37,1.11,1.15,1.15,0,0,0,.88.41,1.32,1.32,0,0,0,.75-.26,2.08,2.08,0,0,0,.64-.77,2.25,2.25,0,0,0,.27-1.05,1.78,1.78,0,0,0-.18-.79,1.26,1.26,0,0,0-.48-.55,1.19,1.19,0,0,0-.62-.18,1.22,1.22,0,0,0-.6.16,1.84,1.84,0,0,0-.54.47,2.14,2.14,0,0,0-.37.72A2.51,2.51,0,0,0,246,46Z"/><path class="cls-1" d="M250.51,48.9l.86-.09a1.51,1.51,0,0,0,.35.88.88.88,0,0,0,.64.26,1.35,1.35,0,0,0,1-.45,4.06,4.06,0,0,0,1-1.91,3.89,3.89,0,0,1-.82.49,1.9,1.9,0,0,1-.73.15,1.82,1.82,0,0,1-1.21-.45,2.09,2.09,0,0,1-.71-1.7,3.07,3.07,0,0,1,.82-2.15,2.24,2.24,0,0,1,1.72-.77,2,2,0,0,1,1.53.68,2.79,2.79,0,0,1,.61,1.92,7.3,7.3,0,0,1-.4,2.38,4.38,4.38,0,0,1-1.3,2,2.33,2.33,0,0,1-1.5.54,1.72,1.72,0,0,1-1.26-.48A2,2,0,0,1,250.51,48.9ZM251.73,46a1.6,1.6,0,0,0,.37,1.11,1.15,1.15,0,0,0,.88.41,1.32,1.32,0,0,0,.75-.26,2.08,2.08,0,0,0,.64-.77,2.25,2.25,0,0,0,.27-1.05,1.78,1.78,0,0,0-.18-.79,1.26,1.26,0,0,0-.48-.55,1.19,1.19,0,0,0-.62-.18,1.22,1.22,0,0,0-.6.16,1.84,1.84,0,0,0-.54.47,2.14,2.14,0,0,0-.37.72A2.51,2.51,0,0,0,251.73,46Z"/><path class="cls-1" d="M256.26,48.9l.86-.09a1.51,1.51,0,0,0,.35.88.88.88,0,0,0,.64.26,1.35,1.35,0,0,0,1-.45,4.06,4.06,0,0,0,1-1.91,3.89,3.89,0,0,1-.82.49,1.9,1.9,0,0,1-.73.15,1.82,1.82,0,0,1-1.21-.45,2.09,2.09,0,0,1-.71-1.7,3.07,3.07,0,0,1,.82-2.15,2.24,2.24,0,0,1,1.72-.77,2,2,0,0,1,1.53.68,2.79,2.79,0,0,1,.61,1.92,7.3,7.3,0,0,1-.4,2.38,4.38,4.38,0,0,1-1.3,2,2.33,2.33,0,0,1-1.5.54,1.72,1.72,0,0,1-1.26-.48A2,2,0,0,1,256.26,48.9ZM257.48,46a1.6,1.6,0,0,0,.37,1.11,1.15,1.15,0,0,0,.88.41,1.32,1.32,0,0,0,.75-.26,2.08,2.08,0,0,0,.64-.77,2.25,2.25,0,0,0,.27-1.05,1.78,1.78,0,0,0-.18-.79,1.26,1.26,0,0,0-.48-.55,1.19,1.19,0,0,0-.62-.18,1.22,1.22,0,0,0-.6.16,1.84,1.84,0,0,0-.54.47,2.14,2.14,0,0,0-.37.72A2.51,2.51,0,0,0,257.48,46Z"/></svg>