<svg id="Layer_1" data-name="Layer 1" xmlns="http://www.w3.org/2000/svg" width="180" height="46" viewBox="0 0 73.65 19.53"><defs><style>.cls-1{fill:#fff;}.cls-2{fill:#e78024;}</style></defs><title>logotype</title><path class="cls-1" d="M17,2.74a2.73,2.73,0,0,0-.81.11,2.7,2.7,0,0,0-.66.3,2.75,2.75,0,0,0-.52.44l-.12.13V2.89h-2v7.6h2V6.23A1.71,1.71,0,0,1,15.31,5a1.38,1.38,0,0,1,1.06-.43,1.27,1.27,0,0,1,1,.41,1.79,1.79,0,0,1,.36,1.21v4.29h2V5.7A3.12,3.12,0,0,0,19,3.55,2.58,2.58,0,0,0,17,2.74Z"/><path class="cls-1" d="M24.39,2.79A6.33,6.33,0,0,0,22.82,3a8,8,0,0,0-1.27.45l-.13.06L22,5.11,22.14,5a7.37,7.37,0,0,1,1-.32,4.31,4.31,0,0,1,1.07-.12A1.83,1.83,0,0,1,25.38,5a1.24,1.24,0,0,1,.41,1,7.12,7.12,0,0,0-.7-.16,6.68,6.68,0,0,0-1.15-.09,4.73,4.73,0,0,0-1.22.15,2.83,2.83,0,0,0-1,.47,2.22,2.22,0,0,0-.66.8,2.54,2.54,0,0,0-.24,1.13v0a2.29,2.29,0,0,0,.23,1,2.23,2.23,0,0,0,.61.76,2.61,2.61,0,0,0,.87.46,3.54,3.54,0,0,0,1,.15,3.17,3.17,0,0,0,1.48-.32,3.51,3.51,0,0,0,.72-.49v.66h2V6a3.28,3.28,0,0,0-.83-2.38A3.39,3.39,0,0,0,24.39,2.79ZM24,9.08a1.6,1.6,0,0,1-.91-.25.75.75,0,0,1-.33-.67v0a.8.8,0,0,1,.37-.7,2,2,0,0,1,1.14-.27,4.83,4.83,0,0,1,.89.08,4.58,4.58,0,0,1,.62.16v.3a1.22,1.22,0,0,1-.12.55,1.31,1.31,0,0,1-.36.43,1.9,1.9,0,0,1-.57.29A2.43,2.43,0,0,1,24,9.08Z"/><path class="cls-1" d="M38.07,8l-2-5.1H34l3.1,7.44a1.42,1.42,0,0,1-.37.54.79.79,0,0,1-.5.15,1.55,1.55,0,0,1-.46-.07,2.67,2.67,0,0,1-.45-.19l-.15-.08-.7,1.53.13.07a4.14,4.14,0,0,0,.82.34,3.6,3.6,0,0,0,1,.12,2.78,2.78,0,0,0,.83-.12,2.1,2.1,0,0,0,.69-.38,2.69,2.69,0,0,0,.56-.67,6.42,6.42,0,0,0,.47-1l3-7.71H39.85Z"/><path class="cls-2" d="M51.14,8a3.81,3.81,0,0,1-.82.63,2.06,2.06,0,0,1-1.78.06,2,2,0,0,1-.64-.47,2.1,2.1,0,0,1-.42-.69,2.47,2.47,0,0,1-.15-.85v0a2.42,2.42,0,0,1,.15-.84,2.15,2.15,0,0,1,.41-.69,2,2,0,0,1,.61-.46,1.77,1.77,0,0,1,.77-.17,1.94,1.94,0,0,1,1,.23,3.77,3.77,0,0,1,.79.63l.12.12,1.25-1.35L52.32,4a4.23,4.23,0,0,0-1.24-.95,4.08,4.08,0,0,0-4.62.81,3.93,3.93,0,0,0-.83,1.27,4,4,0,0,0-.3,1.53v0a4,4,0,0,0,.3,1.52,3.86,3.86,0,0,0,.83,1.25,3.94,3.94,0,0,0,2.82,1.15,3.8,3.8,0,0,0,1.83-.4,4.77,4.77,0,0,0,1.27-1l.1-.11L51.25,7.92Z"/><path class="cls-2" d="M60,3.9A3.9,3.9,0,0,0,58.75,3a4.15,4.15,0,0,0-1.61-.31,4.1,4.1,0,0,0-1.61.32A4,4,0,0,0,53.4,5.17a3.87,3.87,0,0,0-.31,1.54v0a4,4,0,0,0,.3,1.52,3.82,3.82,0,0,0,.84,1.25,4,4,0,0,0,1.28.84,4.3,4.3,0,0,0,3.22,0,3.93,3.93,0,0,0,2.13-2.11,3.81,3.81,0,0,0,.31-1.53v0A3.87,3.87,0,0,0,60,3.9Zm-2.89,5a1.94,1.94,0,0,1-.82-.17,2.06,2.06,0,0,1-.65-.47,2.28,2.28,0,0,1-.43-.7,2.32,2.32,0,0,1-.15-.85v0a2.54,2.54,0,0,1,.14-.84,2,2,0,0,1,.41-.68,2,2,0,0,1,.64-.46,2.1,2.1,0,0,1,1.66,0,2,2,0,0,1,.65.47,2.13,2.13,0,0,1,.43.69,2.38,2.38,0,0,1,.15.85v0a2.46,2.46,0,0,1-.14.84,2.1,2.1,0,0,1-.41.69,2,2,0,0,1-.64.47A2,2,0,0,1,57.14,8.89Z"/><path class="cls-2" d="M72.93,3.51a2.61,2.61,0,0,0-2-.77,2.94,2.94,0,0,0-1.51.38,3.75,3.75,0,0,0-.94.79,2.46,2.46,0,0,0-.77-.79,2.52,2.52,0,0,0-1.41-.38,2.67,2.67,0,0,0-.8.11,2.4,2.4,0,0,0-.65.31,2.88,2.88,0,0,0-.5.43l-.11.12V2.89h-2v7.6h2V6.24A1.8,1.8,0,0,1,64.63,5a1.27,1.27,0,0,1,1-.43,1.18,1.18,0,0,1,1,.4,1.82,1.82,0,0,1,.35,1.2v4.3h2V6.23A1.74,1.74,0,0,1,69.34,5a1.3,1.3,0,0,1,1-.41,1.18,1.18,0,0,1,1,.4,1.86,1.86,0,0,1,.35,1.22v4.29h2V5.68A3.07,3.07,0,0,0,72.93,3.51Z"/><rect class="cls-1" x="9.83" y="2.89" width="2" height="7.6"/><path class="cls-1" d="M11.94,1.11a1.11,1.11,0,1,0-1.11,1.11A1.11,1.11,0,0,0,11.94,1.11Z"/><path class="cls-2" d="M44.38,9.55a1.11,1.11,0,1,0-1.11,1.11A1.11,1.11,0,0,0,44.38,9.55Z"/><path class="cls-1" d="M8.17,5.85a2.87,2.87,0,0,0-.67-.53A5.26,5.26,0,0,0,7,5.07L6.87,5,7,5l.26-.18a2.39,2.39,0,0,0,.49-.5,2.49,2.49,0,0,0,.34-.66,2.65,2.65,0,0,0,.13-.86v0A2.42,2.42,0,0,0,7.46.94,3.74,3.74,0,0,0,4.71,0H0V10.49H4.86a6.22,6.22,0,0,0,1.58-.19,3.78,3.78,0,0,0,1.24-.55,2.57,2.57,0,0,0,.8-.92,2.78,2.78,0,0,0,.28-1.27v0a2.74,2.74,0,0,0-.15-1A2.14,2.14,0,0,0,8.17,5.85ZM2,4.27V1.81H4.49a2.11,2.11,0,0,1,1.27.32A1,1,0,0,1,6.18,3V3A1.06,1.06,0,0,1,5.7,4a2.42,2.42,0,0,1-1.35.33H2ZM6.76,7.38a1.08,1.08,0,0,1-.48,1,2.5,2.5,0,0,1-1.39.33H2V6.07H4.75a2.73,2.73,0,0,1,1.53.34,1.06,1.06,0,0,1,.48.93Z"/><path class="cls-1" d="M33.25,2.75a2.5,2.5,0,0,0-1.7.49,3.13,3.13,0,0,0-.72.8V2.89h-2v7.6h2V7.56A3.87,3.87,0,0,1,31,6.35a2.32,2.32,0,0,1,.47-.84A2,2,0,0,1,32.2,5a2.57,2.57,0,0,1,.95-.17h.25V2.76Z"/><path class="cls-1" d="M.58,18.34l.75-3.58H0l.1-.46H3.27l-.1.46H1.86l-.75,3.58Z"/><path class="cls-1" d="M2.51,18.34l.61-2.92h.44l-.12.6a2,2,0,0,1,.44-.5.73.73,0,0,1,.44-.16.87.87,0,0,1,.37.11l-.2.46a.47.47,0,0,0-.28-.09.77.77,0,0,0-.54.29,2.22,2.22,0,0,0-.43,1L3,18.34Z"/><path class="cls-1" d="M6.38,17.81a1.47,1.47,0,0,1-1.08.59.77.77,0,0,1-.55-.19.62.62,0,0,1-.21-.47,3.63,3.63,0,0,1,.09-.63L5,15.42h.5l-.39,1.87a1.88,1.88,0,0,0,0,.36.33.33,0,0,0,.1.26.42.42,0,0,0,.3.09.89.89,0,0,0,.41-.1,1.09,1.09,0,0,0,.34-.28,1.44,1.44,0,0,0,.24-.41,3.64,3.64,0,0,0,.14-.53l.26-1.26h.5l-.61,2.92H6.27Z"/><path class="cls-1" d="M7.57,17.34l.5,0a.91.91,0,0,0,.07.37.52.52,0,0,0,.24.25.86.86,0,0,0,.41.1.78.78,0,0,0,.5-.13.39.39,0,0,0,.17-.31.37.37,0,0,0-.1-.25,1.57,1.57,0,0,0-.5-.28,4.73,4.73,0,0,1-.51-.24.82.82,0,0,1-.28-.27A.66.66,0,0,1,8,16.19a.77.77,0,0,1,.28-.59A1.11,1.11,0,0,1,9,15.35a1.23,1.23,0,0,1,.84.25.89.89,0,0,1,.3.67l-.49,0a.56.56,0,0,0-.19-.42.73.73,0,0,0-.5-.15.61.61,0,0,0-.4.12.33.33,0,0,0-.14.26.31.31,0,0,0,.12.24,2.07,2.07,0,0,0,.43.22,2.87,2.87,0,0,1,.72.39.74.74,0,0,1,.24.56.78.78,0,0,1-.13.43.92.92,0,0,1-.41.33,1.54,1.54,0,0,1-.65.13,1.46,1.46,0,0,1-.86-.25A.89.89,0,0,1,7.57,17.34Z"/><path class="cls-1" d="M11.51,17.93l-.08.41a1.37,1.37,0,0,1-.35,0,.72.72,0,0,1-.47-.15.37.37,0,0,1-.13-.3,3,3,0,0,1,.07-.44l.36-1.7h-.39l.08-.39H11l.15-.72.57-.34-.22,1.06H12l-.08.39H11.4l-.34,1.62a3,3,0,0,0-.06.37.17.17,0,0,0,.05.13.24.24,0,0,0,.17,0A1.19,1.19,0,0,0,11.51,17.93Z"/><path class="cls-1" d="M14.06,17.35l.48,0a1.47,1.47,0,0,1-.48.69,1.32,1.32,0,0,1-.9.32,1.21,1.21,0,0,1-.6-.15,1,1,0,0,1-.41-.44,1.45,1.45,0,0,1-.14-.65,2.08,2.08,0,0,1,.22-.93,1.58,1.58,0,0,1,.57-.67,1.42,1.42,0,0,1,.76-.22,1.11,1.11,0,0,1,.84.32,1.23,1.23,0,0,1,.31.89,2.62,2.62,0,0,1,0,.44H12.53a1.22,1.22,0,0,0,0,.15.93.93,0,0,0,.19.63.59.59,0,0,0,.46.22.89.89,0,0,0,.5-.17A1.09,1.09,0,0,0,14.06,17.35Zm-1.45-.72h1.64q0-.08,0-.11a.81.81,0,0,0-.19-.57.63.63,0,0,0-.48-.2A.89.89,0,0,0,13,16,1.32,1.32,0,0,0,12.61,16.62Z"/><path class="cls-1" d="M17,17.92a1.2,1.2,0,0,1-.89.49.89.89,0,0,1-.69-.31,1.29,1.29,0,0,1-.28-.89,2.17,2.17,0,0,1,.22-1,1.66,1.66,0,0,1,.55-.66,1.18,1.18,0,0,1,.66-.22.89.89,0,0,1,.82.53l.33-1.57h.5l-.84,4h-.46Zm-1.37-.8a1.53,1.53,0,0,0,.06.48.63.63,0,0,0,.21.29.54.54,0,0,0,.35.12.78.78,0,0,0,.61-.35,1.81,1.81,0,0,0,.37-1.16.77.77,0,0,0-.18-.54.6.6,0,0,0-.46-.2.67.67,0,0,0-.33.08,1,1,0,0,0-.29.27,1.7,1.7,0,0,0-.24.49A1.65,1.65,0,0,0,15.65,17.11Z"/><path class="cls-1" d="M19.75,18.34l.84-4h.5l-.3,1.44a1.76,1.76,0,0,1,.43-.31.94.94,0,0,1,.4-.09.88.88,0,0,1,.68.31,1.29,1.29,0,0,1,.27.89,2.18,2.18,0,0,1-.11.71,2,2,0,0,1-.27.54,1.71,1.71,0,0,1-.34.35,1.33,1.33,0,0,1-.36.2,1,1,0,0,1-.35.06.87.87,0,0,1-.51-.15,1,1,0,0,1-.34-.47l-.12.55Zm.74-1.2v.09a.82.82,0,0,0,.18.57.58.58,0,0,0,.45.2.73.73,0,0,0,.48-.18,1.31,1.31,0,0,0,.36-.57,2.12,2.12,0,0,0,.14-.72.84.84,0,0,0-.18-.57.56.56,0,0,0-.44-.2A.72.72,0,0,0,21,16a1.56,1.56,0,0,0-.38.64A1.7,1.7,0,0,0,20.48,17.14Z"/><path class="cls-1" d="M22.7,19.47l0-.47a1.09,1.09,0,0,0,.3,0,.4.4,0,0,0,.25-.07,1.14,1.14,0,0,0,.26-.34l.16-.29-.49-2.93h.49l.22,1.48q.07.44.11.88l1.31-2.35h.52L24,18.73a2.12,2.12,0,0,1-.48.64.78.78,0,0,1-.48.16A1,1,0,0,1,22.7,19.47Z"/><path class="cls-1" d="M28.43,17.93l-.08.41a1.37,1.37,0,0,1-.35,0,.72.72,0,0,1-.47-.15.37.37,0,0,1-.13-.3,3,3,0,0,1,.07-.44l.36-1.7h-.39l.08-.39h.39l.15-.72.57-.34-.22,1.06h.49l-.08.39h-.49L28,17.42a3,3,0,0,0-.06.37.17.17,0,0,0,.05.13.24.24,0,0,0,.17,0A1.19,1.19,0,0,0,28.43,17.93Z"/><path class="cls-1" d="M28.83,18.34l.61-2.92h.44l-.12.6a2,2,0,0,1,.44-.5.73.73,0,0,1,.44-.16.87.87,0,0,1,.37.11l-.2.46a.47.47,0,0,0-.28-.09.77.77,0,0,0-.54.29,2.22,2.22,0,0,0-.43,1l-.25,1.17Z"/><path class="cls-1" d="M32.68,18a2,2,0,0,1-.5.33,1.28,1.28,0,0,1-.51.1.9.9,0,0,1-.65-.24.81.81,0,0,1-.25-.61.84.84,0,0,1,.11-.43.87.87,0,0,1,.3-.3,1.3,1.3,0,0,1,.45-.16,5,5,0,0,1,.64-.05,2.28,2.28,0,0,0,.67-.1,1.29,1.29,0,0,0,.06-.34.33.33,0,0,0-.13-.27.8.8,0,0,0-.51-.14.88.88,0,0,0-.51.14.79.79,0,0,0-.29.4l-.5,0a1.32,1.32,0,0,1,.49-.67,1.45,1.45,0,0,1,.84-.23,1.32,1.32,0,0,1,.86.26.61.61,0,0,1,.24.5,2.53,2.53,0,0,1-.07.54l-.16.73a2.72,2.72,0,0,0-.08.56,1.89,1.89,0,0,0,.06.4h-.5A1.84,1.84,0,0,1,32.68,18Zm.18-1.12-.22.06-.4,0a3.07,3.07,0,0,0-.61.1.51.51,0,0,0-.27.19.49.49,0,0,0-.09.29.45.45,0,0,0,.14.34.58.58,0,0,0,.41.13,1,1,0,0,0,.84-.5A2.12,2.12,0,0,0,32.87,16.86Z"/><path class="cls-1" d="M35.82,17.92a1.2,1.2,0,0,1-.89.49.89.89,0,0,1-.69-.31,1.29,1.29,0,0,1-.28-.89,2.17,2.17,0,0,1,.22-1,1.66,1.66,0,0,1,.55-.66,1.18,1.18,0,0,1,.66-.22.89.89,0,0,1,.82.53l.33-1.57H37l-.84,4h-.46Zm-1.37-.8a1.53,1.53,0,0,0,.06.48.63.63,0,0,0,.21.29.54.54,0,0,0,.35.12.78.78,0,0,0,.61-.35,1.81,1.81,0,0,0,.37-1.16.77.77,0,0,0-.18-.54.6.6,0,0,0-.46-.2.67.67,0,0,0-.33.08,1,1,0,0,0-.29.27,1.7,1.7,0,0,0-.24.49A1.65,1.65,0,0,0,34.45,17.11Z"/><path class="cls-1" d="M39.13,17.35l.48,0a1.47,1.47,0,0,1-.48.69,1.32,1.32,0,0,1-.9.32,1.21,1.21,0,0,1-.6-.15,1,1,0,0,1-.41-.44,1.45,1.45,0,0,1-.14-.65,2.08,2.08,0,0,1,.22-.93,1.58,1.58,0,0,1,.57-.67,1.42,1.42,0,0,1,.76-.22,1.11,1.11,0,0,1,.84.32,1.23,1.23,0,0,1,.31.89,2.62,2.62,0,0,1,0,.44H37.6a1.22,1.22,0,0,0,0,.15.93.93,0,0,0,.19.63.59.59,0,0,0,.46.22.89.89,0,0,0,.5-.17A1.09,1.09,0,0,0,39.13,17.35Zm-1.45-.72h1.64q0-.08,0-.11a.81.81,0,0,0-.19-.57.63.63,0,0,0-.48-.2.89.89,0,0,0-.58.22A1.32,1.32,0,0,0,37.68,16.62Z"/><path class="cls-1" d="M40.12,18.34l.61-2.92h.44L41,16a2,2,0,0,1,.44-.5.73.73,0,0,1,.44-.16.87.87,0,0,1,.37.11l-.2.46a.47.47,0,0,0-.28-.09.77.77,0,0,0-.54.29,2.22,2.22,0,0,0-.43,1l-.25,1.17Z"/><path class="cls-1" d="M42,17.34l.5,0a.91.91,0,0,0,.07.37.52.52,0,0,0,.24.25.86.86,0,0,0,.41.1.78.78,0,0,0,.5-.13.39.39,0,0,0,.17-.31.37.37,0,0,0-.1-.25,1.57,1.57,0,0,0-.5-.28,4.73,4.73,0,0,1-.51-.24.82.82,0,0,1-.28-.27.66.66,0,0,1-.09-.35.77.77,0,0,1,.28-.59,1.11,1.11,0,0,1,.77-.25,1.23,1.23,0,0,1,.84.25.89.89,0,0,1,.3.67l-.49,0a.56.56,0,0,0-.19-.42.73.73,0,0,0-.5-.15.61.61,0,0,0-.4.12.33.33,0,0,0-.14.26.31.31,0,0,0,.12.24,2.07,2.07,0,0,0,.43.22,2.87,2.87,0,0,1,.72.39.74.74,0,0,1,.24.56.78.78,0,0,1-.13.43.92.92,0,0,1-.41.33,1.54,1.54,0,0,1-.65.13,1.46,1.46,0,0,1-.86-.25A.89.89,0,0,1,42,17.34Z"/><path class="cls-1" d="M46.43,17.34l.5,0a.91.91,0,0,0,.07.37.52.52,0,0,0,.24.25.86.86,0,0,0,.41.1.78.78,0,0,0,.5-.13.39.39,0,0,0,.17-.31.37.37,0,0,0-.1-.25,1.57,1.57,0,0,0-.5-.28,4.73,4.73,0,0,1-.51-.24.82.82,0,0,1-.28-.27.66.66,0,0,1-.09-.35.77.77,0,0,1,.28-.59,1.11,1.11,0,0,1,.77-.25,1.23,1.23,0,0,1,.84.25.89.89,0,0,1,.3.67l-.49,0a.56.56,0,0,0-.19-.42.73.73,0,0,0-.5-.15.61.61,0,0,0-.4.12.33.33,0,0,0-.14.26.31.31,0,0,0,.12.24,2.07,2.07,0,0,0,.43.22,2.87,2.87,0,0,1,.72.39.74.74,0,0,1,.24.56.78.78,0,0,1-.13.43.92.92,0,0,1-.41.33,1.54,1.54,0,0,1-.65.13,1.46,1.46,0,0,1-.86-.25A.89.89,0,0,1,46.43,17.34Z"/><path class="cls-1" d="M49.18,18.34l.61-2.92h.5l-.61,2.92Zm.73-3.47L50,14.3h.5l-.12.56Z"/><path class="cls-1" d="M50.45,18.34l.61-2.92h.45l-.11.51a2.39,2.39,0,0,1,.55-.44,1.09,1.09,0,0,1,.52-.14.78.78,0,0,1,.56.19.68.68,0,0,1,.2.51,2.87,2.87,0,0,1-.07.51l-.37,1.77h-.5l.39-1.85a2.12,2.12,0,0,0,.06-.4.3.3,0,0,0-.1-.24.42.42,0,0,0-.29-.09,1,1,0,0,0-.68.28,1.76,1.76,0,0,0-.44.94L51,18.34Z"/><path class="cls-1" d="M55.61,17.27l.5.05a1.67,1.67,0,0,1-.53.81,1.26,1.26,0,0,1-.79.27A1,1,0,0,1,54,18.1a1.19,1.19,0,0,1-.3-.86,2.46,2.46,0,0,1,.19-.94,1.52,1.52,0,0,1,.54-.7,1.4,1.4,0,0,1,.81-.24,1,1,0,0,1,.75.27.93.93,0,0,1,.28.7l-.49,0a.59.59,0,0,0-.16-.43.57.57,0,0,0-.42-.16.77.77,0,0,0-.52.19,1.25,1.25,0,0,0-.35.58,2.41,2.41,0,0,0-.13.74.83.83,0,0,0,.17.56.52.52,0,0,0,.41.19.72.72,0,0,0,.46-.18A1.21,1.21,0,0,0,55.61,17.27Z"/><path class="cls-1" d="M58.55,17.35l.48,0a1.47,1.47,0,0,1-.48.69,1.32,1.32,0,0,1-.9.32,1.21,1.21,0,0,1-.6-.15,1,1,0,0,1-.41-.44,1.45,1.45,0,0,1-.14-.65,2.08,2.08,0,0,1,.22-.93,1.58,1.58,0,0,1,.57-.67,1.42,1.42,0,0,1,.76-.22,1.11,1.11,0,0,1,.84.32,1.23,1.23,0,0,1,.31.89,2.62,2.62,0,0,1,0,.44H57a1.22,1.22,0,0,0,0,.15.93.93,0,0,0,.19.63.59.59,0,0,0,.46.22.89.89,0,0,0,.5-.17A1.09,1.09,0,0,0,58.55,17.35Zm-1.45-.72h1.64q0-.08,0-.11a.81.81,0,0,0-.19-.57.63.63,0,0,0-.48-.2.89.89,0,0,0-.58.22A1.32,1.32,0,0,0,57.11,16.62Z"/><path class="cls-1" d="M62.28,18.34l.64-3a3.17,3.17,0,0,1-1.16.52l.09-.45a4.07,4.07,0,0,0,.73-.39,3.74,3.74,0,0,0,.54-.42,1.53,1.53,0,0,0,.21-.27h.29l-.85,4.05Z"/><path class="cls-1" d="M64.44,17.41l.47,0a.82.82,0,0,0,.19.48.48.48,0,0,0,.35.14.74.74,0,0,0,.53-.25,2.21,2.21,0,0,0,.53-1,2.12,2.12,0,0,1-.44.27,1,1,0,0,1-.4.08A1,1,0,0,1,65,16.8a1.14,1.14,0,0,1-.39-.92,1.67,1.67,0,0,1,.45-1.17,1.22,1.22,0,0,1,.94-.42,1.07,1.07,0,0,1,.83.37,1.52,1.52,0,0,1,.33,1,4,4,0,0,1-.22,1.3,2.39,2.39,0,0,1-.71,1.11,1.27,1.27,0,0,1-.82.29.94.94,0,0,1-.68-.26A1.09,1.09,0,0,1,64.44,17.41Zm.66-1.6a.87.87,0,0,0,.2.61.62.62,0,0,0,.48.23.72.72,0,0,0,.41-.14,1.13,1.13,0,0,0,.35-.42,1.23,1.23,0,0,0,.15-.57,1,1,0,0,0-.1-.43.69.69,0,0,0-.26-.3.65.65,0,0,0-.34-.1.67.67,0,0,0-.32.09,1,1,0,0,0-.3.26,1.17,1.17,0,0,0-.2.39A1.37,1.37,0,0,0,65.1,15.82Z"/><path class="cls-1" d="M67.57,17.41l.47,0a.82.82,0,0,0,.19.48.48.48,0,0,0,.35.14.74.74,0,0,0,.53-.25,2.21,2.21,0,0,0,.53-1,2.12,2.12,0,0,1-.44.27,1,1,0,0,1-.4.08,1,1,0,0,1-.66-.25,1.14,1.14,0,0,1-.39-.92,1.67,1.67,0,0,1,.45-1.17,1.22,1.22,0,0,1,.94-.42,1.07,1.07,0,0,1,.83.37,1.52,1.52,0,0,1,.33,1,4,4,0,0,1-.22,1.3,2.39,2.39,0,0,1-.71,1.11,1.27,1.27,0,0,1-.82.29.94.94,0,0,1-.68-.26A1.09,1.09,0,0,1,67.57,17.41Zm.66-1.6a.87.87,0,0,0,.2.61.62.62,0,0,0,.48.23.72.72,0,0,0,.41-.14,1.13,1.13,0,0,0,.35-.42,1.23,1.23,0,0,0,.15-.57,1,1,0,0,0-.1-.43.69.69,0,0,0-.26-.3.65.65,0,0,0-.34-.1.67.67,0,0,0-.32.09,1,1,0,0,0-.3.26,1.17,1.17,0,0,0-.2.39A1.37,1.37,0,0,0,68.24,15.82Z"/><path class="cls-1" d="M70.71,17.41l.47,0a.82.82,0,0,0,.19.48.48.48,0,0,0,.35.14.74.74,0,0,0,.53-.25,2.21,2.21,0,0,0,.53-1,2.12,2.12,0,0,1-.44.27,1,1,0,0,1-.4.08,1,1,0,0,1-.66-.25,1.14,1.14,0,0,1-.39-.92,1.67,1.67,0,0,1,.45-1.17,1.22,1.22,0,0,1,.94-.42,1.07,1.07,0,0,1,.83.37,1.52,1.52,0,0,1,.33,1,4,4,0,0,1-.22,1.3,2.39,2.39,0,0,1-.71,1.11,1.27,1.27,0,0,1-.82.29.94.94,0,0,1-.68-.26A1.09,1.09,0,0,1,70.71,17.41Zm.66-1.6a.87.87,0,0,0,.2.61.62.62,0,0,0,.48.23.72.72,0,0,0,.41-.14,1.13,1.13,0,0,0,.35-.42,1.23,1.23,0,0,0,.15-.57,1,1,0,0,0-.1-.43.69.69,0,0,0-.26-.3.65.65,0,0,0-.34-.1.67.67,0,0,0-.32.09,1,1,0,0,0-.3.26,1.17,1.17,0,0,0-.2.39A1.37,1.37,0,0,0,71.37,15.82Z"/></svg>