<svg width="25" height="25" viewBox="0 0 25 25" xmlns="http://www.w3.org/2000/svg"><title>ic-google</title><g fill-rule="nonzero" fill="none"><path d="M24.914 12.734c0-1.024-.085-1.772-.268-2.547H12.71v4.623h7.006c-.142 1.149-.904 2.879-2.6 4.042l-.023.154 3.774 2.865.261.026c2.401-2.173 3.785-5.37 3.785-9.163" fill="#4285F4"/><path d="M12.711 24.914c3.432 0 6.313-1.107 8.418-3.017l-4.011-3.045c-1.074.733-2.514 1.245-4.407 1.245a7.638 7.638 0 0 1-7.231-5.176l-.15.012-3.923 2.976-.051.14c2.09 4.07 6.384 6.865 11.355 6.865" fill="#34A853"/><path d="M5.48 14.92a7.53 7.53 0 0 1-.424-2.463c0-.858.156-1.689.41-2.464l-.007-.165-3.973-3.023-.13.06A12.266 12.266 0 0 0 0 12.457c0 2.007.494 3.903 1.356 5.592L5.48 14.92" fill="#FBBC05"/><path d="M12.711 4.817c2.387 0 3.997 1.01 4.915 1.854l3.588-3.432C19.01 1.232 16.144 0 12.71 0 7.74 0 3.446 2.796 1.356 6.865l4.11 3.128C6.496 6.99 9.35 4.817 12.71 4.817" fill="#EB4335"/></g></svg>